<svg width="354" height="35" viewBox="0 0 354 35" fill="none" xmlns="http://www.w3.org/2000/svg">
<path d="M343.999 29.4801C343.455 29.4801 342.943 29.3521 342.463 29.0961C342.015 28.8401 341.679 28.3601 341.455 27.6561C341.359 27.3681 341.311 26.9681 341.311 26.4561C341.311 25.7521 341.407 24.9681 341.599 24.1041C341.791 23.2401 341.999 22.5041 342.223 21.8961C342.063 21.9601 341.759 22.2481 341.311 22.7601C340.895 23.2401 340.367 23.8321 339.727 24.5361C339.119 25.2081 338.431 25.8961 337.663 26.6001C336.927 27.2721 336.159 27.8321 335.359 28.2801C334.559 28.7281 333.775 28.9521 333.007 28.9521C332.495 28.9521 331.951 28.8081 331.375 28.5201C330.799 28.2001 330.335 27.8001 329.983 27.3201C329.503 26.6801 329.263 26.0241 329.263 25.3521C329.263 24.4881 329.551 23.5921 330.127 22.6641C330.735 21.7361 331.503 20.8401 332.431 19.9761C333.391 19.0801 334.399 18.2801 335.455 17.5761C336.543 16.8401 337.567 16.2321 338.527 15.7521C339.519 15.2401 340.319 14.9041 340.927 14.7441C341.567 14.5521 342.287 14.4561 343.087 14.4561C343.535 14.4561 343.999 14.5201 344.479 14.6481C344.959 14.7441 345.359 14.9201 345.679 15.1761C345.935 15.3041 346.143 15.4801 346.303 15.7041C346.463 15.9281 346.543 16.1681 346.543 16.4241C346.543 16.6801 346.431 16.7601 346.207 16.6641C345.951 16.2801 345.599 16.0401 345.151 15.9441C344.735 15.8161 344.303 15.7521 343.855 15.7521C342.575 15.7521 341.167 16.1681 339.631 17.0001C338.095 17.8321 336.719 18.8081 335.503 19.9281C335.119 20.2481 334.591 20.8081 333.919 21.6081C333.279 22.3761 332.687 23.2241 332.143 24.1521C331.599 25.0801 331.327 25.9281 331.327 26.6961C331.327 27.1121 331.439 27.4801 331.663 27.8001C331.791 28.0241 331.999 28.1361 332.287 28.1361C332.735 28.1361 333.327 27.8961 334.063 27.4161C334.831 26.9361 335.615 26.3601 336.415 25.6881C337.215 24.9841 337.935 24.3121 338.575 23.6721C339.247 23.0321 339.727 22.5681 340.015 22.2801C340.175 22.1201 340.479 21.8001 340.927 21.3201C341.407 20.8081 341.919 20.2641 342.463 19.6881C343.007 19.1121 343.487 18.6161 343.903 18.2001C344.351 17.7841 344.639 17.5761 344.767 17.5761C344.927 17.5761 345.183 17.6241 345.535 17.7201C345.919 17.7841 346.239 17.8961 346.495 18.0561C346.751 18.2161 346.799 18.4241 346.639 18.6801C345.807 19.8961 345.135 21.1761 344.623 22.5201C344.143 23.8321 343.855 24.8721 343.759 25.6401C343.727 25.7681 343.711 25.8961 343.711 26.0241C343.711 26.1201 343.711 26.2321 343.711 26.3601C343.711 27.6401 344.159 28.2801 345.055 28.2801C345.535 28.2801 346.175 27.9921 346.975 27.4161C347.775 26.8401 348.591 26.1521 349.423 25.3521C350.255 24.5521 351.007 23.7841 351.679 23.0481C352.383 22.2801 352.863 21.7041 353.119 21.3201C353.215 21.2241 353.311 21.1761 353.407 21.1761C353.535 21.1761 353.647 21.2401 353.743 21.3681C353.839 21.4641 353.839 21.5921 353.743 21.7521C353.391 22.3281 352.879 23.0161 352.207 23.8161C351.535 24.6161 350.783 25.4161 349.951 26.2161C349.119 27.0161 348.303 27.7041 347.503 28.2801C347.087 28.6001 346.559 28.8721 345.919 29.0961C345.279 29.3521 344.639 29.4801 343.999 29.4801Z" fill="white"/>
<path d="M325.518 34.2321C324.686 34.1041 324.094 33.7041 323.742 33.0321C323.39 32.3601 323.214 31.5281 323.214 30.5361C323.214 29.3521 323.374 28.0721 323.694 26.6961C324.046 25.3201 324.446 24.0241 324.894 22.8081C325.342 21.5921 325.694 20.6641 325.95 20.0241C325.214 20.8881 324.366 21.8321 323.406 22.8561C322.478 23.8801 321.502 24.8561 320.478 25.7841C319.454 26.7121 318.462 27.4801 317.502 28.0881C316.574 28.6641 315.758 28.9521 315.054 28.9521C314.542 28.9521 313.998 28.8081 313.422 28.5201C312.846 28.2001 312.382 27.8001 312.03 27.3201C311.55 26.6801 311.31 26.0241 311.31 25.3521C311.31 24.4881 311.598 23.5921 312.174 22.6641C312.782 21.7361 313.55 20.8401 314.478 19.9761C315.438 19.0801 316.446 18.2801 317.502 17.5761C318.59 16.8401 319.614 16.2321 320.574 15.7521C321.566 15.2401 322.366 14.9041 322.974 14.7441C323.294 14.6801 323.63 14.6161 323.982 14.5521C324.334 14.4881 324.702 14.4561 325.086 14.4561C325.566 14.4561 326.046 14.5201 326.526 14.6481C327.006 14.7441 327.406 14.9201 327.726 15.1761L327.918 15.3201C328.686 13.5601 329.534 11.7841 330.462 9.99206C331.39 8.16806 332.382 6.50406 333.438 5.00006C334.494 3.49606 335.614 2.29606 336.798 1.40006C337.982 0.472056 339.214 0.00805664 340.494 0.00805664C340.654 0.00805664 340.814 0.0240564 340.974 0.056056C341.134 0.056056 341.278 0.0720558 341.406 0.104055C342.206 0.264057 342.766 0.552057 343.086 0.968056C343.438 1.35206 343.614 1.81606 343.614 2.36006C343.614 2.74406 343.534 3.16006 343.374 3.60806C343.246 4.02406 343.054 4.44006 342.798 4.85606C342.094 6.10406 341.166 7.33606 340.014 8.55206C338.894 9.76806 337.662 10.9521 336.318 12.1041C334.974 13.2241 333.63 14.3121 332.286 15.3681C330.974 16.4241 329.774 17.4161 328.686 18.3441C328.206 19.4641 327.726 20.7761 327.246 22.2801C326.766 23.7841 326.366 25.0641 326.046 26.1201C325.854 26.8881 325.694 27.6081 325.566 28.2801C325.47 28.9521 325.422 29.5761 325.422 30.1521C325.422 31.2081 325.614 32.0721 325.998 32.7441C326.318 33.2561 326.718 33.5121 327.198 33.5121C327.55 33.5121 327.87 33.3841 328.158 33.1281C328.286 33.0641 328.398 32.9841 328.494 32.8881C328.622 32.7921 328.766 32.6961 328.926 32.6001C329.118 32.5041 329.278 32.4561 329.406 32.4561C329.63 32.4561 329.646 32.6321 329.454 32.9841C329.358 33.0801 329.246 33.1921 329.118 33.3201C328.99 33.4801 328.846 33.6401 328.686 33.8001C328.462 33.9601 328.126 34.0881 327.678 34.1841C327.23 34.2801 326.782 34.3281 326.334 34.3281C326.206 34.3281 326.062 34.3121 325.902 34.2801C325.774 34.2801 325.646 34.2641 325.518 34.2321ZM330.126 15.6081C331.406 14.7441 332.798 13.6721 334.302 12.3921C335.806 11.0801 337.214 9.68806 338.526 8.21606C339.838 6.71206 340.846 5.28806 341.55 3.94406C341.966 3.17606 342.174 2.56806 342.174 2.12006C342.174 1.57606 341.934 1.30406 341.454 1.30406C341.006 1.30406 340.414 1.56006 339.678 2.07206C337.534 3.73606 335.726 5.72006 334.254 8.02406C332.782 10.2961 331.406 12.8241 330.126 15.6081ZM313.71 27.8001C313.87 27.9921 314.078 28.0881 314.334 28.0881C314.814 28.0881 315.374 27.8801 316.014 27.4641C316.686 27.0481 317.134 26.7281 317.358 26.5041C318.99 25.1921 320.622 23.7841 322.254 22.2801C323.918 20.7441 325.47 19.2081 326.91 17.6721C327.038 17.3841 327.15 17.1121 327.246 16.8561C327.342 16.5681 327.454 16.2961 327.582 16.0401C327.102 15.8481 326.542 15.7521 325.902 15.7521C324.622 15.7521 323.214 16.1681 321.678 17.0001C320.142 17.8321 318.766 18.8081 317.55 19.9281C317.166 20.2481 316.638 20.8081 315.966 21.6081C315.326 22.3761 314.734 23.2241 314.19 24.1521C313.646 25.0801 313.374 25.9281 313.374 26.6961C313.374 27.1121 313.486 27.4801 313.71 27.8001Z" fill="white"/>
<path d="M309.41 12.2961C308.994 12.2961 308.562 12.2641 308.114 12.2001C307.666 12.1041 307.442 11.8001 307.442 11.2881C307.442 11.1921 307.65 10.9681 308.066 10.6161C308.514 10.2641 308.962 9.91206 309.41 9.56006C309.89 9.17606 310.178 8.95206 310.274 8.88806C310.818 8.44006 311.154 8.21606 311.282 8.21606C311.442 8.21606 311.442 8.42406 311.282 8.84007C311.122 9.25607 311.042 9.62407 311.042 9.94407C311.042 10.1041 310.946 10.3761 310.754 10.7601C310.562 11.1441 310.338 11.4961 310.082 11.8161C309.826 12.1361 309.602 12.2961 309.41 12.2961ZM304.178 29.4801C303.602 29.4801 303.074 29.3521 302.594 29.0961C302.146 28.8401 301.81 28.3601 301.586 27.6561C301.554 27.5601 301.522 27.4641 301.49 27.3681C301.49 27.2721 301.49 27.1601 301.49 27.0321C301.49 26.3921 301.634 25.5921 301.922 24.6321C302.21 23.6721 302.562 22.7441 302.978 21.8481C302.786 22.1041 302.562 22.4241 302.306 22.8081C302.05 23.1601 301.682 23.6241 301.202 24.2001C301.074 24.3281 300.93 24.3921 300.77 24.3921C300.546 24.3921 300.434 24.2641 300.434 24.0081C300.434 23.8161 300.498 23.6561 300.626 23.5281C301.458 22.4721 302.194 21.5281 302.834 20.6961C303.506 19.8641 304.002 19.1601 304.322 18.5841C304.322 18.5521 304.306 18.5361 304.274 18.5361C304.274 18.5041 304.274 18.4721 304.274 18.4401C304.274 18.3441 304.322 18.2001 304.418 18.0081C304.674 17.2401 304.93 16.6001 305.186 16.0881C305.474 15.5441 305.778 15.2401 306.098 15.1761C306.162 15.1761 306.226 15.1761 306.29 15.1761C306.354 15.1441 306.418 15.1281 306.482 15.1281C306.834 15.1281 307.154 15.2081 307.442 15.3681C307.73 15.5281 307.874 15.7681 307.874 16.0881C307.874 16.3761 307.762 16.7281 307.538 17.1441C307.346 17.5601 307.09 18.0721 306.77 18.6801C306.066 20.1521 305.426 21.4961 304.85 22.7121C304.306 23.8961 304.002 24.8721 303.938 25.6401C303.906 25.7681 303.89 25.8961 303.89 26.0241C303.89 26.1201 303.89 26.2321 303.89 26.3601C303.89 27.6401 304.306 28.2801 305.138 28.2801C305.65 28.2801 306.306 28.0081 307.106 27.4641C307.906 26.8881 308.722 26.2001 309.554 25.4001C310.386 24.5681 311.138 23.7841 311.81 23.0481C312.514 22.2801 312.994 21.7041 313.25 21.3201C313.346 21.2241 313.442 21.1761 313.538 21.1761C313.666 21.1761 313.762 21.2241 313.826 21.3201C313.922 21.4161 313.938 21.5441 313.874 21.7041C313.586 22.2481 313.09 22.9361 312.386 23.7681C311.714 24.5681 310.946 25.3841 310.082 26.2161C309.25 27.0161 308.434 27.7041 307.634 28.2801C307.218 28.6001 306.69 28.8721 306.05 29.0961C305.442 29.3521 304.818 29.4801 304.178 29.4801Z" fill="white"/>
<path d="M290.866 29.7201C289.426 29.7201 288.178 29.3841 287.122 28.7121C286.066 28.0401 285.538 27.0161 285.538 25.6401C285.538 24.9041 285.762 24.0081 286.21 22.9521C286.53 22.2161 287.122 21.3681 287.986 20.4081C288.85 19.4481 289.858 18.5201 291.01 17.6241C292.162 16.6961 293.33 15.9441 294.514 15.3681C295.698 14.7601 296.77 14.4561 297.73 14.4561C298.082 14.4561 298.402 14.5041 298.69 14.6001C299.234 14.7921 299.602 15.0961 299.794 15.5121C300.018 15.9281 300.13 16.3601 300.13 16.8081C300.13 17.2241 300.066 17.6241 299.938 18.0081C299.81 18.3921 299.65 18.7281 299.458 19.0161C298.882 19.8801 298.05 20.6481 296.962 21.3201C295.906 21.9921 294.818 22.5201 293.698 22.9041C292.61 23.2881 291.714 23.5121 291.01 23.5761H290.914C290.498 23.5761 290.29 23.4481 290.29 23.1921C290.29 23.0321 290.418 22.9521 290.674 22.9521C291.442 22.8881 292.402 22.5361 293.554 21.8961C294.738 21.2241 295.778 20.5361 296.674 19.8321C297.058 19.5121 297.506 19.0641 298.018 18.4881C298.562 17.9121 298.834 17.3521 298.834 16.8081C298.834 16.2321 298.562 15.9441 298.018 15.9441C297.73 15.9441 297.426 16.0081 297.106 16.1361C296.818 16.2641 296.578 16.3601 296.386 16.4241C295.458 16.8721 294.434 17.5761 293.314 18.5361C292.194 19.4641 291.17 20.5201 290.242 21.7041C289.346 22.8561 288.722 24.0241 288.37 25.2081C288.274 25.4641 288.21 25.7201 288.178 25.9761C288.146 26.2001 288.13 26.4241 288.13 26.6481C288.13 27.4161 288.37 27.9601 288.85 28.2801C289.362 28.6001 289.97 28.7601 290.674 28.7601C291.73 28.7601 292.818 28.5361 293.938 28.0881C295.058 27.6081 296.146 27.0001 297.202 26.2641C298.258 25.5281 299.218 24.7441 300.082 23.9121C300.978 23.0481 301.73 22.2161 302.338 21.4161C302.434 21.2881 302.546 21.2241 302.674 21.2241C302.802 21.1921 302.882 21.2081 302.914 21.2721C303.042 21.3041 303.106 21.4001 303.106 21.5601C303.106 21.6881 303.074 21.8161 303.01 21.9441C302.114 23.1921 301.026 24.4081 299.746 25.5921C298.498 26.7761 297.106 27.7681 295.57 28.5681C294.066 29.3361 292.498 29.7201 290.866 29.7201Z" fill="white"/>
<path d="M257.698 29.6239C257.442 29.6239 257.362 29.5119 257.458 29.2879C257.586 29.0639 257.81 28.5039 258.13 27.6079C258.482 26.6799 258.866 25.5919 259.282 24.3439C259.73 23.0959 260.162 21.8959 260.578 20.7439C260.258 21.2239 259.906 21.6879 259.522 22.1359C259.17 22.5839 258.866 22.9519 258.61 23.2399C258.514 23.3359 258.45 23.3839 258.418 23.3839C258.322 23.3839 258.274 23.2879 258.274 23.0959C258.274 22.7119 258.37 22.3599 258.562 22.0399C259.234 21.1759 259.746 20.5039 260.098 20.0239C260.45 19.5119 260.738 19.0639 260.962 18.6799C261.218 18.2639 261.474 17.7999 261.73 17.2879C261.794 16.9359 261.906 16.5039 262.066 15.9919C262.258 15.4799 262.69 15.2239 263.362 15.2239C264.354 15.2239 264.85 15.4319 264.85 15.8479C264.85 15.9759 264.818 16.1199 264.754 16.2799C264.69 16.4079 264.626 16.5519 264.562 16.7119C264.178 17.5759 263.762 18.5679 263.314 19.6879C262.866 20.8079 262.45 21.8639 262.066 22.8559C261.714 23.8479 261.442 24.6159 261.25 25.1599C261.602 24.7119 262.13 24.0879 262.834 23.2879C263.538 22.4559 264.338 21.5599 265.234 20.5999C266.162 19.6079 267.106 18.6799 268.066 17.8159C269.058 16.9199 269.986 16.1839 270.85 15.6079C271.714 15.0319 272.45 14.7439 273.058 14.7439C273.794 14.7439 274.162 15.1599 274.162 15.9919C274.162 16.6319 273.906 17.4639 273.394 18.4879C273.17 18.9679 272.866 19.6239 272.482 20.4559C272.098 21.2559 271.794 21.8639 271.57 22.2799C272.146 21.7679 272.802 21.2079 273.538 20.5999C274.274 19.9599 275.042 19.3679 275.842 18.8239C276.674 18.2799 277.442 17.8799 278.146 17.6239C278.306 17.5599 278.626 17.4639 279.106 17.3359C279.586 17.1759 280.002 17.0959 280.354 17.0959C280.834 17.0959 281.074 17.2559 281.074 17.5759C281.074 17.7999 280.962 18.0399 280.738 18.2959C280.194 19.1279 279.698 20.0239 279.25 20.9839C278.834 21.9119 278.498 22.7919 278.242 23.6239C277.986 24.4559 277.826 25.1279 277.762 25.6399C277.73 25.7679 277.714 25.8959 277.714 26.0239C277.714 26.1199 277.714 26.2319 277.714 26.3599C277.714 27.6399 278.13 28.2799 278.962 28.2799C279.474 28.2799 280.13 28.0079 280.93 27.4639C281.73 26.8879 282.546 26.1999 283.378 25.3999C284.21 24.5679 284.962 23.7839 285.634 23.0479C286.338 22.2799 286.818 21.7039 287.074 21.3199C287.17 21.2239 287.266 21.1759 287.362 21.1759C287.49 21.1759 287.586 21.2239 287.65 21.3199C287.746 21.4159 287.762 21.5439 287.698 21.7039C287.41 22.2479 286.914 22.9359 286.21 23.7679C285.538 24.5679 284.77 25.3839 283.906 26.2159C283.074 27.0159 282.258 27.7039 281.458 28.2799C281.042 28.5999 280.514 28.8719 279.874 29.0959C279.266 29.3519 278.642 29.4799 278.002 29.4799C277.426 29.4799 276.898 29.3519 276.418 29.0959C275.97 28.8399 275.634 28.3599 275.41 27.6559C275.314 27.3679 275.266 26.9999 275.266 26.5519C275.266 25.8479 275.362 25.0479 275.554 24.1519C275.746 23.2559 275.954 22.5039 276.178 21.8959C276.338 21.4479 276.546 20.9519 276.802 20.4079C277.09 19.8319 277.346 19.3519 277.57 18.9679C276.578 19.3519 275.618 19.9279 274.69 20.6959C273.762 21.4639 272.914 22.2479 272.146 23.0479C271.41 23.8159 270.786 24.4559 270.274 24.9679C270.146 25.3199 269.89 25.6079 269.506 25.8319C269.154 26.0559 268.818 26.1679 268.498 26.1679C268.018 26.1679 267.778 25.9599 267.778 25.5439C267.778 25.3839 267.826 25.1919 267.922 24.9679C268.242 24.1999 268.594 23.4159 268.978 22.6159C269.394 21.7839 269.762 21.0319 270.082 20.3599C270.434 19.6879 270.674 19.2239 270.802 18.9679C271.058 18.5199 271.186 18.1679 271.186 17.9119C271.186 17.6559 271.074 17.5279 270.85 17.5279C270.626 17.5279 270.258 17.6719 269.746 17.9599C269.234 18.2479 268.562 18.7599 267.73 19.4959C267.058 20.1039 266.322 20.9039 265.522 21.8959C264.722 22.8559 263.954 23.8479 263.218 24.8719C262.482 25.8959 261.826 26.7759 261.25 27.5119C260.706 28.2479 260.322 28.6799 260.098 28.8079C259.906 28.9039 259.522 29.0639 258.946 29.2879C258.402 29.5119 257.986 29.6239 257.698 29.6239Z" fill="white"/>
<path d="M250.335 29.4799C248.991 29.4799 248.047 29.1439 247.503 28.4719C246.991 27.7999 246.735 26.9679 246.735 25.9759C246.735 25.0479 246.943 23.8799 247.359 22.4719C247.807 21.0639 248.383 19.5439 249.087 17.9119C249.791 16.2799 250.543 14.6639 251.343 13.0639C252.175 11.4319 252.991 9.94391 253.791 8.59991C254.623 7.22391 255.343 6.11991 255.951 5.28791C256.559 4.48791 257.215 3.68791 257.919 2.88791C258.623 2.08791 259.407 1.41591 260.271 0.871909C261.135 0.327909 262.111 0.0559082 263.199 0.0559082C263.935 0.0559082 264.559 0.263908 265.071 0.679909C265.615 1.06391 265.887 1.65591 265.887 2.45591C265.887 2.77591 265.823 3.14391 265.695 3.55991C265.599 3.97591 265.423 4.40791 265.167 4.85591C263.215 8.24791 260.879 11.3839 258.159 14.2639C255.471 17.1439 252.623 19.8159 249.615 22.2799C249.487 22.7599 249.359 23.1919 249.231 23.5759C249.135 23.9599 249.055 24.2639 248.991 24.4879C248.959 24.6479 248.943 24.8239 248.943 25.0159C248.943 25.1759 248.943 25.3359 248.943 25.4959C248.943 26.2639 249.071 26.9359 249.327 27.5119C249.583 28.0879 250.015 28.3759 250.623 28.3759C251.199 28.3759 251.903 28.1039 252.735 27.5599C253.599 26.9839 254.463 26.2959 255.327 25.4959C256.191 24.6639 256.975 23.8639 257.679 23.0959C258.383 22.3279 258.879 21.7359 259.167 21.3199C259.263 21.2239 259.359 21.1759 259.455 21.1759C259.583 21.1759 259.679 21.2399 259.743 21.3679C259.839 21.4959 259.839 21.6559 259.743 21.8479C259.423 22.3919 258.911 23.0639 258.207 23.8639C257.503 24.6639 256.719 25.4799 255.855 26.3119C254.991 27.1119 254.159 27.8159 253.359 28.4239C252.367 29.1279 251.359 29.4799 250.335 29.4799ZM250.287 20.3599C251.503 19.5279 252.767 18.4559 254.079 17.1439C255.391 15.7999 256.671 14.3439 257.919 12.7759C259.199 11.2079 260.351 9.65591 261.375 8.11991C262.431 6.58391 263.279 5.19191 263.919 3.94391C264.111 3.59191 264.239 3.28791 264.303 3.03191C264.399 2.74391 264.447 2.48791 264.447 2.26391C264.447 1.65591 264.191 1.35191 263.679 1.35191C263.231 1.35191 262.671 1.59191 261.999 2.07191C260.271 3.41591 258.671 5.14391 257.199 7.25591C255.727 9.33591 254.415 11.5279 253.263 13.8319C252.111 16.1359 251.119 18.3119 250.287 20.3599Z" fill="white"/>
<path d="M211.519 32.9841C210.463 32.9841 209.455 32.8081 208.495 32.4561C207.535 32.1041 206.751 31.5441 206.143 30.7761C205.535 30.0081 205.231 29.0321 205.231 27.8481C205.231 27.5601 205.295 27.3041 205.423 27.0801C205.583 26.8241 205.727 26.6961 205.855 26.6961C206.111 26.6961 206.239 27.0801 206.239 27.8481C206.239 28.9361 206.703 29.7841 207.631 30.3921C208.367 30.8721 209.359 31.1121 210.607 31.1121C211.855 31.1121 213.151 30.8881 214.495 30.4401C215.839 29.9921 217.119 29.3521 218.335 28.5201C219.775 27.5601 221.375 26.1841 223.135 24.3921C224.927 22.5681 226.783 20.5841 228.703 18.4401C227.167 18.2801 225.631 18.1041 224.095 17.9121C222.591 17.7201 221.071 17.6241 219.535 17.6241C218.511 17.6241 217.487 17.7361 216.463 17.9601C215.439 18.1521 214.511 18.5361 213.679 19.1121C212.847 19.6881 212.223 20.5361 211.807 21.6561C211.775 21.7841 211.727 21.9281 211.663 22.0881C211.631 22.2481 211.615 22.4081 211.615 22.5681C211.615 22.8881 211.695 23.1761 211.855 23.4321C211.919 23.6241 211.951 23.7361 211.951 23.7681C211.951 24.0561 211.823 24.2001 211.567 24.2001C211.343 24.2001 211.167 24.0881 211.039 23.8641C210.719 23.2881 210.559 22.5521 210.559 21.6561C210.559 19.9601 210.863 18.6641 211.471 17.7681C212.111 16.8721 212.959 16.2641 214.015 15.9441C215.071 15.6241 216.207 15.4641 217.423 15.4641C217.967 15.4641 218.527 15.4961 219.103 15.5601C219.711 15.5921 220.303 15.6401 220.879 15.7041C222.287 15.8321 223.743 16.0561 225.247 16.3761C226.751 16.6641 228.255 16.9681 229.759 17.2881C231.423 15.3361 233.055 13.3681 234.655 11.3841C236.287 9.4001 237.807 7.5281 239.215 5.7681C240.623 3.9761 241.823 2.4401 242.815 1.1601C242.847 1.0641 242.911 1.0001 243.007 0.968098C243.071 0.904099 243.119 0.872099 243.151 0.872099C243.503 0.680099 243.951 0.5201 244.495 0.392099C245.039 0.2321 245.407 0.1521 245.599 0.1521C245.919 0.1521 246.079 0.328099 246.079 0.680099C246.079 0.776099 245.999 0.952099 245.839 1.2081C244.239 3.9281 242.863 6.7121 241.711 9.5601C240.591 12.4081 239.599 15.3361 238.735 18.3441L238.639 18.6801C238.831 18.6801 239.023 18.6961 239.215 18.7281C239.439 18.7281 239.631 18.7281 239.791 18.7281C241.167 18.8241 242.335 18.6801 243.295 18.2961C243.999 18.0401 244.479 17.6721 244.735 17.1921C244.831 17.0641 244.911 17.0001 244.975 17.0001C245.135 17.0001 245.247 17.0961 245.311 17.2881C245.375 17.4481 245.359 17.6081 245.263 17.7681C244.911 18.3761 244.287 18.8241 243.391 19.1121C242.879 19.3361 242.287 19.4801 241.615 19.5441C240.975 19.6081 240.303 19.6241 239.599 19.5921H239.311L238.735 19.5441H238.447C237.967 21.3041 237.631 23.1281 237.439 25.0161C237.407 25.1761 237.391 25.3361 237.391 25.4961C237.391 25.6241 237.391 25.7681 237.391 25.9281C237.391 27.7521 237.887 28.6641 238.879 28.6641C239.519 28.6641 240.271 28.3761 241.135 27.8001C242.031 27.2241 242.927 26.5201 243.823 25.6881C244.751 24.8561 245.583 24.0401 246.319 23.2401C247.055 22.4081 247.599 21.7521 247.951 21.2721C248.015 21.2081 248.111 21.1761 248.239 21.1761C248.559 21.1761 248.655 21.3521 248.527 21.7041C248.463 21.8001 248.191 22.1841 247.711 22.8561C247.231 23.4961 246.575 24.2801 245.743 25.2081C244.911 26.1041 243.935 27.0001 242.815 27.8961C241.919 28.6001 241.023 29.0481 240.127 29.2401C239.263 29.4641 238.607 29.5761 238.159 29.5761C237.263 29.5761 236.543 29.1761 235.999 28.3761C235.487 27.5441 235.231 26.4881 235.231 25.2081C235.231 24.2801 235.327 23.3201 235.519 22.3281C235.711 21.3361 235.935 20.3441 236.191 19.3521C235.263 19.2561 234.319 19.1601 233.359 19.0641C232.399 18.9361 231.439 18.8081 230.479 18.6801C228.559 21.0161 226.639 23.2081 224.719 25.2561C222.831 27.2721 221.055 28.9041 219.391 30.1521C218.143 31.0481 216.847 31.7361 215.503 32.2161C214.191 32.7281 212.863 32.9841 211.519 32.9841ZM236.383 18.4401C236.959 16.2001 237.631 13.9601 238.399 11.7201C239.199 9.4481 239.983 7.3841 240.751 5.5281L240.991 4.9521C239.615 6.8721 238.095 8.9201 236.431 11.0961C234.799 13.2721 233.135 15.4321 231.439 17.5761C232.271 17.7361 233.103 17.8961 233.935 18.0561C234.767 18.1841 235.583 18.3121 236.383 18.4401Z" fill="white"/>
<path d="M187.765 29.4801C187.221 29.4801 186.709 29.3521 186.229 29.0961C185.781 28.8401 185.445 28.3601 185.221 27.6561C185.125 27.3681 185.077 26.9681 185.077 26.4561C185.077 25.7521 185.173 24.9681 185.365 24.1041C185.557 23.2401 185.765 22.5041 185.989 21.8961C185.829 21.9601 185.525 22.2481 185.077 22.7601C184.661 23.2401 184.133 23.8321 183.493 24.5361C182.885 25.2081 182.197 25.8961 181.429 26.6001C180.693 27.2721 179.925 27.8321 179.125 28.2801C178.325 28.7281 177.541 28.9521 176.773 28.9521C176.261 28.9521 175.717 28.8081 175.141 28.5201C174.565 28.2001 174.101 27.8001 173.749 27.3201C173.269 26.6801 173.029 26.0241 173.029 25.3521C173.029 24.4881 173.317 23.5921 173.893 22.6641C174.501 21.7361 175.269 20.8401 176.197 19.9761C177.157 19.0801 178.165 18.2801 179.221 17.5761C180.309 16.8401 181.333 16.2321 182.293 15.7521C183.285 15.2401 184.085 14.9041 184.693 14.7441C185.333 14.5521 186.053 14.4561 186.853 14.4561C187.301 14.4561 187.765 14.5201 188.245 14.6481C188.725 14.7441 189.125 14.9201 189.445 15.1761C189.701 15.3041 189.909 15.4801 190.069 15.7041C190.229 15.9281 190.309 16.1681 190.309 16.4241C190.309 16.6801 190.197 16.7601 189.973 16.6641C189.717 16.2801 189.365 16.0401 188.917 15.9441C188.501 15.8161 188.069 15.7521 187.621 15.7521C186.341 15.7521 184.933 16.1681 183.397 17.0001C181.861 17.8321 180.485 18.8081 179.269 19.9281C178.885 20.2481 178.357 20.8081 177.685 21.6081C177.045 22.3761 176.453 23.2241 175.909 24.1521C175.365 25.0801 175.093 25.9281 175.093 26.6961C175.093 27.1121 175.205 27.4801 175.429 27.8001C175.557 28.0241 175.765 28.1361 176.053 28.1361C176.501 28.1361 177.093 27.8961 177.829 27.4161C178.597 26.9361 179.381 26.3601 180.181 25.6881C180.981 24.9841 181.701 24.3121 182.341 23.6721C183.013 23.0321 183.493 22.5681 183.781 22.2801C183.941 22.1201 184.245 21.8001 184.693 21.3201C185.173 20.8081 185.685 20.2641 186.229 19.6881C186.773 19.1121 187.253 18.6161 187.669 18.2001C188.117 17.7841 188.405 17.5761 188.533 17.5761C188.693 17.5761 188.949 17.6241 189.301 17.7201C189.685 17.7841 190.005 17.8961 190.261 18.0561C190.517 18.2161 190.565 18.4241 190.405 18.6801C189.573 19.8961 188.901 21.1761 188.389 22.5201C187.909 23.8321 187.621 24.8721 187.525 25.6401C187.493 25.7681 187.477 25.8961 187.477 26.0241C187.477 26.1201 187.477 26.2321 187.477 26.3601C187.477 27.6401 187.925 28.2801 188.821 28.2801C189.301 28.2801 189.941 27.9921 190.741 27.4161C191.541 26.8401 192.357 26.1521 193.189 25.3521C194.021 24.5521 194.773 23.7841 195.445 23.0481C196.149 22.2801 196.629 21.7041 196.885 21.3201C196.981 21.2241 197.077 21.1761 197.173 21.1761C197.301 21.1761 197.413 21.2401 197.509 21.3681C197.605 21.4641 197.605 21.5921 197.509 21.7521C197.157 22.3281 196.645 23.0161 195.973 23.8161C195.301 24.6161 194.549 25.4161 193.717 26.2161C192.885 27.0161 192.069 27.7041 191.269 28.2801C190.853 28.6001 190.325 28.8721 189.685 29.0961C189.045 29.3521 188.405 29.4801 187.765 29.4801Z" fill="white"/>
<path d="M166.195 29.4799C164.851 29.4799 163.907 29.1439 163.363 28.4719C162.851 27.7999 162.595 26.9679 162.595 25.9759C162.595 25.0479 162.803 23.8799 163.219 22.4719C163.667 21.0639 164.243 19.5439 164.947 17.9119C165.651 16.2799 166.403 14.6639 167.203 13.0639C168.035 11.4319 168.851 9.94391 169.651 8.59991C170.483 7.22391 171.203 6.11991 171.811 5.28791C172.419 4.48791 173.075 3.68791 173.779 2.88791C174.483 2.08791 175.267 1.41591 176.131 0.871909C176.995 0.327909 177.971 0.0559082 179.059 0.0559082C179.795 0.0559082 180.419 0.263908 180.931 0.679909C181.475 1.06391 181.747 1.65591 181.747 2.45591C181.747 2.77591 181.683 3.14391 181.555 3.55991C181.459 3.97591 181.283 4.40791 181.027 4.85591C179.075 8.24791 176.739 11.3839 174.019 14.2639C171.331 17.1439 168.483 19.8159 165.475 22.2799C165.347 22.7599 165.219 23.1919 165.091 23.5759C164.995 23.9599 164.915 24.2639 164.851 24.4879C164.819 24.6479 164.803 24.8239 164.803 25.0159C164.803 25.1759 164.803 25.3359 164.803 25.4959C164.803 26.2639 164.931 26.9359 165.187 27.5119C165.443 28.0879 165.875 28.3759 166.483 28.3759C167.059 28.3759 167.763 28.1039 168.595 27.5599C169.459 26.9839 170.323 26.2959 171.187 25.4959C172.051 24.6639 172.835 23.8639 173.539 23.0959C174.243 22.3279 174.739 21.7359 175.027 21.3199C175.123 21.2239 175.219 21.1759 175.315 21.1759C175.443 21.1759 175.539 21.2399 175.603 21.3679C175.699 21.4959 175.699 21.6559 175.603 21.8479C175.283 22.3919 174.771 23.0639 174.067 23.8639C173.363 24.6639 172.579 25.4799 171.715 26.3119C170.851 27.1119 170.019 27.8159 169.219 28.4239C168.227 29.1279 167.219 29.4799 166.195 29.4799ZM166.147 20.3599C167.363 19.5279 168.627 18.4559 169.939 17.1439C171.251 15.7999 172.531 14.3439 173.779 12.7759C175.059 11.2079 176.211 9.65591 177.235 8.11991C178.291 6.58391 179.139 5.19191 179.779 3.94391C179.971 3.59191 180.099 3.28791 180.163 3.03191C180.259 2.74391 180.307 2.48791 180.307 2.26391C180.307 1.65591 180.051 1.35191 179.539 1.35191C179.091 1.35191 178.531 1.59191 177.859 2.07191C176.131 3.41591 174.531 5.14391 173.059 7.25591C171.587 9.33591 170.275 11.5279 169.123 13.8319C167.971 16.1359 166.979 18.3119 166.147 20.3599Z" fill="white"/>
<path d="M154.611 29.4801C154.035 29.4801 153.523 29.3521 153.075 29.0961C152.627 28.8401 152.291 28.3601 152.067 27.6561C152.035 27.4961 151.987 27.3201 151.923 27.1281C151.891 26.9041 151.875 26.6801 151.875 26.4561C151.875 25.6881 151.971 24.8241 152.163 23.8641C152.387 22.9041 152.627 22.1041 152.883 21.4641C152.755 21.5601 152.531 21.8801 152.211 22.4241C151.891 22.9681 151.491 23.6081 151.011 24.3441C150.531 25.0481 149.987 25.7681 149.379 26.5041C148.803 27.2081 148.163 27.8001 147.459 28.2801C146.787 28.7281 146.067 28.9521 145.299 28.9521C144.787 28.9521 144.163 28.8081 143.427 28.5201C142.723 28.2321 142.211 27.8321 141.891 27.3201C141.571 26.8081 141.411 26.1681 141.411 25.4001C141.411 24.4721 141.619 23.4641 142.035 22.3761C142.451 21.2561 142.979 20.2161 143.619 19.2561C143.843 18.9361 144.099 18.5521 144.387 18.1041C144.675 17.6561 144.963 17.2721 145.251 16.9521C145.539 16.6001 145.747 16.4081 145.875 16.3761C146.259 16.2481 146.707 16.1841 147.219 16.1841C147.763 16.1841 148.163 16.2481 148.419 16.3761C148.643 16.4721 148.755 16.5841 148.755 16.7121C148.755 16.8721 148.627 17.0801 148.371 17.3361C148.019 17.6561 147.539 18.1361 146.931 18.7761C146.323 19.4161 145.715 20.1841 145.107 21.0801C144.531 21.9761 144.051 22.9681 143.667 24.0561C143.347 24.9201 143.187 25.6721 143.187 26.3121C143.187 27.4321 143.635 27.9921 144.531 27.9921C145.299 27.9921 146.115 27.6721 146.979 27.0321C147.843 26.3921 148.675 25.6081 149.475 24.6801C150.307 23.7521 151.043 22.8401 151.683 21.9441C152.355 21.0161 152.867 20.2801 153.219 19.7361C153.539 19.2881 153.891 18.7121 154.275 18.0081C154.691 17.3041 155.091 16.6161 155.475 15.9441C155.859 15.2721 156.163 14.7761 156.387 14.4561C156.611 14.4561 156.947 14.5041 157.395 14.6001C157.875 14.6641 158.275 14.7921 158.595 14.9841C158.947 15.1761 159.043 15.4161 158.883 15.7041C158.691 16.0241 158.387 16.5201 157.971 17.1921C157.587 17.8641 157.187 18.5521 156.771 19.2561C156.387 19.9281 156.083 20.4721 155.859 20.8881C155.091 22.3601 154.595 23.9441 154.371 25.6401C154.339 25.7681 154.323 25.8961 154.323 26.0241C154.323 26.1201 154.323 26.2321 154.323 26.3601C154.323 27.6401 154.755 28.2801 155.619 28.2801C156.099 28.2801 156.739 27.9921 157.539 27.4161C158.339 26.8401 159.155 26.1521 159.987 25.3521C160.851 24.5521 161.619 23.7841 162.291 23.0481C162.995 22.2801 163.475 21.7041 163.731 21.3201C163.795 21.2241 163.891 21.1761 164.019 21.1761C164.147 21.1761 164.243 21.2241 164.307 21.3201C164.403 21.4161 164.403 21.5441 164.307 21.7041C164.019 22.2481 163.523 22.9361 162.819 23.7681C162.147 24.5681 161.395 25.3841 160.563 26.2161C159.731 27.0161 158.915 27.7041 158.115 28.2801C157.699 28.6001 157.171 28.8721 156.531 29.0961C155.891 29.3521 155.251 29.4801 154.611 29.4801Z" fill="white"/>
<path d="M133.437 29.4801C132.893 29.4801 132.381 29.3521 131.901 29.0961C131.453 28.8401 131.117 28.3601 130.893 27.6561C130.797 27.3681 130.749 26.9681 130.749 26.4561C130.749 25.7521 130.845 24.9681 131.037 24.1041C131.229 23.2401 131.437 22.5041 131.661 21.8961C131.501 21.9601 131.197 22.2481 130.749 22.7601C130.333 23.2401 129.805 23.8321 129.165 24.5361C128.557 25.2081 127.869 25.8961 127.101 26.6001C126.365 27.2721 125.597 27.8321 124.797 28.2801C123.997 28.7281 123.213 28.9521 122.445 28.9521C121.933 28.9521 121.389 28.8081 120.813 28.5201C120.237 28.2001 119.773 27.8001 119.421 27.3201C118.941 26.6801 118.701 26.0241 118.701 25.3521C118.701 24.4881 118.989 23.5921 119.565 22.6641C120.173 21.7361 120.941 20.8401 121.869 19.9761C122.829 19.0801 123.837 18.2801 124.893 17.5761C125.981 16.8401 127.005 16.2321 127.965 15.7521C128.957 15.2401 129.757 14.9041 130.365 14.7441C131.005 14.5521 131.725 14.4561 132.525 14.4561C132.973 14.4561 133.437 14.5201 133.917 14.6481C134.397 14.7441 134.797 14.9201 135.117 15.1761C135.373 15.3041 135.581 15.4801 135.741 15.7041C135.901 15.9281 135.981 16.1681 135.981 16.4241C135.981 16.6801 135.869 16.7601 135.645 16.6641C135.389 16.2801 135.037 16.0401 134.589 15.9441C134.173 15.8161 133.741 15.7521 133.293 15.7521C132.013 15.7521 130.605 16.1681 129.069 17.0001C127.533 17.8321 126.157 18.8081 124.941 19.9281C124.557 20.2481 124.029 20.8081 123.357 21.6081C122.717 22.3761 122.125 23.2241 121.581 24.1521C121.037 25.0801 120.765 25.9281 120.765 26.6961C120.765 27.1121 120.877 27.4801 121.101 27.8001C121.229 28.0241 121.437 28.1361 121.725 28.1361C122.173 28.1361 122.765 27.8961 123.501 27.4161C124.269 26.9361 125.053 26.3601 125.853 25.6881C126.653 24.9841 127.373 24.3121 128.013 23.6721C128.685 23.0321 129.165 22.5681 129.453 22.2801C129.613 22.1201 129.917 21.8001 130.365 21.3201C130.845 20.8081 131.357 20.2641 131.901 19.6881C132.445 19.1121 132.925 18.6161 133.341 18.2001C133.789 17.7841 134.077 17.5761 134.205 17.5761C134.365 17.5761 134.621 17.6241 134.973 17.7201C135.357 17.7841 135.677 17.8961 135.933 18.0561C136.189 18.2161 136.237 18.4241 136.077 18.6801C135.245 19.8961 134.573 21.1761 134.061 22.5201C133.581 23.8321 133.293 24.8721 133.197 25.6401C133.165 25.7681 133.149 25.8961 133.149 26.0241C133.149 26.1201 133.149 26.2321 133.149 26.3601C133.149 27.6401 133.597 28.2801 134.493 28.2801C134.973 28.2801 135.613 27.9921 136.413 27.4161C137.213 26.8401 138.029 26.1521 138.861 25.3521C139.693 24.5521 140.445 23.7841 141.117 23.0481C141.821 22.2801 142.301 21.7041 142.557 21.3201C142.653 21.2241 142.749 21.1761 142.845 21.1761C142.973 21.1761 143.085 21.2401 143.181 21.3681C143.277 21.4641 143.277 21.5921 143.181 21.7521C142.829 22.3281 142.317 23.0161 141.645 23.8161C140.973 24.6161 140.221 25.4161 139.389 26.2161C138.557 27.0161 137.741 27.7041 136.941 28.2801C136.525 28.6001 135.997 28.8721 135.357 29.0961C134.717 29.3521 134.077 29.4801 133.437 29.4801Z" fill="white"/>
<path d="M100.409 30.2959C100.345 30.2959 100.153 30.2639 99.8325 30.1999C99.5445 30.1359 99.2565 30.0559 98.9685 29.9599C98.7125 29.8639 98.5685 29.7519 98.5365 29.6239C98.4725 29.0159 98.6325 28.1519 99.0165 27.0319C99.4005 25.9119 99.9125 24.6639 100.553 23.2879C101.225 21.8799 101.913 20.5039 102.617 19.1599C102.489 19.1599 102.345 19.1599 102.185 19.1599C102.057 19.1279 101.913 19.1119 101.753 19.1119C101.369 19.0479 101.177 18.8719 101.177 18.5839C101.177 18.4239 101.353 18.3439 101.705 18.3439C101.961 18.3439 102.185 18.3599 102.377 18.3919C102.569 18.3919 102.777 18.3919 103.001 18.3919C103.641 17.1759 104.233 16.0879 104.777 15.1279C105.321 14.1359 105.705 13.3839 105.929 12.8719C106.121 12.5199 106.249 12.2319 106.313 12.0079C106.377 11.7519 106.409 11.5599 106.409 11.4319C106.409 11.2399 106.377 11.0799 106.313 10.9519C106.377 10.5679 106.601 10.0559 106.985 9.41589C107.401 8.77589 107.913 8.13589 108.521 7.49589C109.129 6.85589 109.785 6.32789 110.489 5.91189C111.193 5.46389 111.849 5.23989 112.457 5.23989C112.649 5.23989 112.937 5.30389 113.321 5.43189C113.737 5.52789 114.137 5.68789 114.521 5.91189C114.905 6.13589 115.145 6.45589 115.241 6.87189C115.273 6.93589 115.289 7.03189 115.289 7.15989C115.289 7.25589 115.241 7.30389 115.145 7.30389C115.081 7.30389 114.985 7.28789 114.857 7.25589C114.761 7.19189 114.681 7.15989 114.617 7.15989C113.913 7.15989 113.145 7.49589 112.313 8.16789C111.513 8.80789 110.681 9.67189 109.817 10.7599C108.953 11.8479 108.089 13.0639 107.225 14.4079C106.393 15.7199 105.593 17.0479 104.825 18.3919C106.425 18.3279 108.121 18.1359 109.913 17.8159C111.705 17.4639 113.481 16.9999 115.241 16.4239C117.001 15.8479 118.633 15.1439 120.137 14.3119C121.641 13.4799 122.905 12.5359 123.929 11.4799C125.049 10.2959 125.609 9.07989 125.609 7.83189C125.609 6.90389 125.257 6.03989 124.553 5.23989C123.849 4.43989 122.745 3.83189 121.241 3.41589C120.345 3.15989 119.321 2.96789 118.169 2.83989C117.049 2.71189 115.833 2.64789 114.521 2.64789C112.473 2.64789 110.361 2.82389 108.185 3.17589C106.041 3.52789 104.025 4.07189 102.137 4.80789C100.249 5.51189 98.6645 6.40789 97.3845 7.49589C96.1045 8.58389 95.3365 9.87989 95.0805 11.3839C94.9845 12.1519 95.1285 12.7599 95.5125 13.2079C95.8965 13.6559 96.3605 14.0079 96.9045 14.2639C97.4805 14.4879 97.9285 14.6959 98.2485 14.8879C98.4725 15.0799 98.5845 15.2399 98.5845 15.3679C98.5845 15.5919 98.3765 15.6719 97.9605 15.6079C97.5125 15.5119 96.9525 15.2879 96.2805 14.9359C95.6405 14.5839 95.0645 14.1039 94.5525 13.4959C94.0725 12.8559 93.8325 12.1199 93.8325 11.2879C93.8325 11.1599 93.8325 11.0319 93.8325 10.9039C93.8645 10.7759 93.8965 10.6479 93.9285 10.5199C93.9285 10.4879 93.9125 10.3919 93.8805 10.2319C93.8805 10.0399 93.8805 9.87989 93.8805 9.75189C94.0725 8.75989 94.5525 7.83189 95.3205 6.96789C96.1205 6.07189 97.0165 5.28789 98.0085 4.61589C99.0325 3.91189 99.9765 3.35189 100.841 2.93589C102.345 2.19989 104.153 1.62389 106.265 1.20789C108.377 0.759889 110.585 0.535889 112.889 0.535889C114.297 0.535889 115.689 0.631889 117.065 0.823891C118.473 1.01589 119.833 1.31989 121.145 1.73589C122.969 2.34389 124.377 3.28789 125.369 4.56789C126.393 5.81589 126.857 7.12789 126.761 8.50389C126.665 9.81589 126.201 10.9999 125.369 12.0559C124.569 13.1119 123.529 14.0399 122.249 14.8399C121.001 15.6079 119.609 16.2799 118.073 16.8559C116.569 17.3999 115.049 17.8479 113.513 18.1999C112.041 18.5199 110.473 18.7599 108.809 18.9199C107.177 19.0799 105.705 19.1759 104.393 19.2079C103.625 20.5839 102.937 21.8799 102.329 23.0959C101.753 24.3119 101.321 25.2879 101.033 26.0239C100.777 26.7279 100.649 27.2239 100.649 27.5119C100.649 27.9599 100.825 28.1839 101.177 28.1839C101.625 28.1839 102.105 27.8799 102.617 27.2719C102.969 26.8559 103.289 26.4719 103.577 26.1199C103.897 25.7359 104.169 25.5759 104.393 25.6399C104.425 25.6719 104.441 25.7199 104.441 25.7839C104.441 25.9439 104.329 26.1679 104.105 26.4559C103.881 26.7119 103.753 26.8559 103.721 26.8879C103.497 27.2079 103.193 27.6399 102.809 28.1839C102.457 28.7279 102.073 29.2079 101.657 29.6239C101.273 30.0719 100.857 30.2959 100.409 30.2959Z" fill="white"/>
<path d="M75.3586 29.4801C74.8146 29.4801 74.3026 29.3521 73.8226 29.0961C73.3746 28.8401 73.0386 28.3601 72.8146 27.6561C72.7186 27.3681 72.6706 26.9681 72.6706 26.4561C72.6706 25.7521 72.7666 24.9681 72.9586 24.1041C73.1506 23.2401 73.3586 22.5041 73.5826 21.8961C73.4226 21.9601 73.1186 22.2481 72.6706 22.7601C72.2546 23.2401 71.7266 23.8321 71.0866 24.5361C70.4786 25.2081 69.7906 25.8961 69.0226 26.6001C68.2866 27.2721 67.5186 27.8321 66.7186 28.2801C65.9186 28.7281 65.1346 28.9521 64.3666 28.9521C63.8546 28.9521 63.3106 28.8081 62.7346 28.5201C62.1586 28.2001 61.6946 27.8001 61.3426 27.3201C60.8626 26.6801 60.6226 26.0241 60.6226 25.3521C60.6226 24.4881 60.9106 23.5921 61.4866 22.6641C62.0946 21.7361 62.8626 20.8401 63.7906 19.9761C64.7506 19.0801 65.7586 18.2801 66.8146 17.5761C67.9026 16.8401 68.9266 16.2321 69.8866 15.7521C70.8786 15.2401 71.6786 14.9041 72.2866 14.7441C72.9266 14.5521 73.6466 14.4561 74.4466 14.4561C74.8946 14.4561 75.3586 14.5201 75.8386 14.6481C76.3186 14.7441 76.7186 14.9201 77.0386 15.1761C77.2946 15.3041 77.5026 15.4801 77.6626 15.7041C77.8226 15.9281 77.9026 16.1681 77.9026 16.4241C77.9026 16.6801 77.7906 16.7601 77.5666 16.6641C77.3106 16.2801 76.9586 16.0401 76.5106 15.9441C76.0946 15.8161 75.6626 15.7521 75.2146 15.7521C73.9346 15.7521 72.5266 16.1681 70.9906 17.0001C69.4546 17.8321 68.0786 18.8081 66.8626 19.9281C66.4786 20.2481 65.9506 20.8081 65.2786 21.6081C64.6386 22.3761 64.0466 23.2241 63.5026 24.1521C62.9586 25.0801 62.6866 25.9281 62.6866 26.6961C62.6866 27.1121 62.7986 27.4801 63.0226 27.8001C63.1506 28.0241 63.3586 28.1361 63.6466 28.1361C64.0946 28.1361 64.6866 27.8961 65.4226 27.4161C66.1906 26.9361 66.9746 26.3601 67.7746 25.6881C68.5746 24.9841 69.2946 24.3121 69.9346 23.6721C70.6066 23.0321 71.0866 22.5681 71.3746 22.2801C71.5346 22.1201 71.8386 21.8001 72.2866 21.3201C72.7666 20.8081 73.2786 20.2641 73.8226 19.6881C74.3666 19.1121 74.8466 18.6161 75.2626 18.2001C75.7106 17.7841 75.9986 17.5761 76.1266 17.5761C76.2866 17.5761 76.5426 17.6241 76.8946 17.7201C77.2786 17.7841 77.5986 17.8961 77.8546 18.0561C78.1106 18.2161 78.1586 18.4241 77.9986 18.6801C77.1666 19.8961 76.4946 21.1761 75.9826 22.5201C75.5026 23.8321 75.2146 24.8721 75.1186 25.6401C75.0866 25.7681 75.0706 25.8961 75.0706 26.0241C75.0706 26.1201 75.0706 26.2321 75.0706 26.3601C75.0706 27.6401 75.5186 28.2801 76.4146 28.2801C76.8946 28.2801 77.5346 27.9921 78.3346 27.4161C79.1346 26.8401 79.9506 26.1521 80.7826 25.3521C81.6146 24.5521 82.3666 23.7841 83.0386 23.0481C83.7426 22.2801 84.2226 21.7041 84.4786 21.3201C84.5746 21.2241 84.6706 21.1761 84.7666 21.1761C84.8946 21.1761 85.0066 21.2401 85.1026 21.3681C85.1986 21.4641 85.1986 21.5921 85.1026 21.7521C84.7506 22.3281 84.2386 23.0161 83.5666 23.8161C82.8946 24.6161 82.1426 25.4161 81.3106 26.2161C80.4786 27.0161 79.6626 27.7041 78.8626 28.2801C78.4466 28.6001 77.9186 28.8721 77.2786 29.0961C76.6386 29.3521 75.9986 29.4801 75.3586 29.4801Z" fill="white"/>
<path d="M40.5443 29.6239C40.3203 29.6239 40.2563 29.5119 40.3523 29.2879C40.4483 29.0959 40.6243 28.6639 40.8803 27.9919C41.1363 27.2879 41.4243 26.4559 41.7443 25.4959C42.0963 24.5359 42.4483 23.5439 42.8003 22.5199C43.1523 21.4959 43.4723 20.5359 43.7603 19.6399C44.0803 18.7439 44.3363 18.0399 44.5283 17.5279C44.5923 17.3359 44.6563 17.0639 44.7203 16.7119C44.7843 16.3279 44.9123 15.9919 45.1043 15.7039C45.3283 15.3839 45.6963 15.2239 46.2083 15.2239C47.1683 15.2239 47.6483 15.4479 47.6483 15.8959C47.6483 16.0559 47.5683 16.3279 47.4083 16.7119C47.0243 17.5759 46.6083 18.5679 46.1603 19.6879C45.7123 20.8079 45.3123 21.8639 44.9603 22.8559C44.6083 23.8479 44.3363 24.6159 44.1443 25.1599C44.4643 24.7119 44.9763 24.0719 45.6803 23.2399C46.4163 22.4079 47.2323 21.5119 48.1283 20.5519C49.0243 19.5919 49.9523 18.6639 50.9123 17.7679C51.9043 16.8719 52.8163 16.1519 53.6483 15.6079C54.5123 15.0319 55.2483 14.7439 55.8563 14.7439C56.6243 14.7439 57.0083 15.1599 57.0083 15.9919C57.0083 16.2799 56.9283 16.7119 56.7683 17.2879C56.4803 18.0879 56.1123 18.8719 55.6643 19.6399C55.2163 20.3759 54.8163 21.1599 54.4643 21.9919C53.8563 23.4959 53.5043 24.7119 53.4083 25.6399C53.3763 25.7679 53.3603 25.8959 53.3603 26.0239C53.3603 26.1199 53.3603 26.2319 53.3603 26.3599C53.3603 27.6399 53.7923 28.2799 54.6563 28.2799C55.1363 28.2799 55.7763 27.9919 56.5763 27.4159C57.3763 26.8399 58.1923 26.1519 59.0243 25.3519C59.8883 24.5519 60.6563 23.7839 61.3283 23.0479C62.0003 22.2799 62.4643 21.7039 62.7203 21.3199C62.8163 21.2239 62.9123 21.1759 63.0083 21.1759C63.1363 21.1759 63.2323 21.2239 63.2963 21.3199C63.3923 21.4159 63.4083 21.5439 63.3443 21.7039C63.0563 22.2479 62.5603 22.9359 61.8563 23.7679C61.1843 24.5679 60.4323 25.3839 59.6003 26.2159C58.7683 27.0159 57.9523 27.7039 57.1523 28.2799C56.6723 28.5999 56.0803 28.8879 55.3763 29.1439C54.6723 29.3999 53.9683 29.5119 53.2643 29.4799C52.3683 29.3839 51.7283 29.0799 51.3443 28.5679C50.9603 28.0239 50.7683 27.3839 50.7683 26.6479C50.7683 25.7839 50.9283 24.8719 51.2483 23.9119C51.6003 22.9199 51.9843 21.9919 52.4003 21.1279C52.8163 20.2639 53.1523 19.6079 53.4083 19.1599C53.6643 18.6479 53.7923 18.2479 53.7923 17.9599C53.7923 17.7039 53.6803 17.5759 53.4563 17.5759C53.2323 17.5759 52.8963 17.7199 52.4483 18.0079C52.0003 18.2959 51.3923 18.7919 50.6243 19.4959C49.9203 20.1039 49.1683 20.9039 48.3683 21.8959C47.5683 22.8559 46.7843 23.8479 46.0163 24.8719C45.2803 25.8959 44.6243 26.7759 44.0483 27.5119C43.5043 28.2479 43.1203 28.6799 42.8963 28.8079C42.7363 28.9039 42.3683 29.0639 41.7923 29.2879C41.2483 29.5119 40.8323 29.6239 40.5443 29.6239Z" fill="white"/>
<path d="M6.81583 32.9841C5.75983 32.9841 4.75183 32.8081 3.79183 32.4561C2.83183 32.1041 2.04783 31.5441 1.43983 30.7761C0.831832 30.0081 0.527832 29.0321 0.527832 27.8481C0.527832 27.5601 0.591832 27.3041 0.719832 27.0801C0.879832 26.8241 1.02383 26.6961 1.15183 26.6961C1.40783 26.6961 1.53583 27.0801 1.53583 27.8481C1.53583 28.9361 1.99983 29.7841 2.92783 30.3921C3.66383 30.8721 4.65583 31.1121 5.90383 31.1121C7.15183 31.1121 8.44783 30.8881 9.79183 30.4401C11.1358 29.9921 12.4158 29.3521 13.6318 28.5201C15.0718 27.5601 16.6718 26.1841 18.4318 24.3921C20.2238 22.5681 22.0798 20.5841 23.9998 18.4401C22.4638 18.2801 20.9278 18.1041 19.3918 17.9121C17.8878 17.7201 16.3678 17.6241 14.8318 17.6241C13.8078 17.6241 12.7838 17.7361 11.7598 17.9601C10.7358 18.1521 9.80783 18.5361 8.97583 19.1121C8.14383 19.6881 7.51983 20.5361 7.10383 21.6561C7.07183 21.7841 7.02383 21.9281 6.95983 22.0881C6.92783 22.2481 6.91183 22.4081 6.91183 22.5681C6.91183 22.8881 6.99183 23.1761 7.15183 23.4321C7.21583 23.6241 7.24783 23.7361 7.24783 23.7681C7.24783 24.0561 7.11983 24.2001 6.86383 24.2001C6.63983 24.2001 6.46383 24.0881 6.33583 23.8641C6.01583 23.2881 5.85583 22.5521 5.85583 21.6561C5.85583 19.9601 6.15983 18.6641 6.76783 17.7681C7.40783 16.8721 8.25583 16.2641 9.31183 15.9441C10.3678 15.6241 11.5038 15.4641 12.7198 15.4641C13.2638 15.4641 13.8238 15.4961 14.3998 15.5601C15.0078 15.5921 15.5998 15.6401 16.1758 15.7041C17.5838 15.8321 19.0398 16.0561 20.5438 16.3761C22.0478 16.6641 23.5518 16.9681 25.0558 17.2881C26.7198 15.3361 28.3518 13.3681 29.9518 11.3841C31.5838 9.4001 33.1038 7.5281 34.5118 5.7681C35.9198 3.9761 37.1198 2.4401 38.1118 1.1601C38.1438 1.0641 38.2078 1.0001 38.3038 0.968098C38.3678 0.904099 38.4158 0.872099 38.4478 0.872099C38.7998 0.680099 39.2478 0.5201 39.7918 0.392099C40.3358 0.2321 40.7038 0.1521 40.8958 0.1521C41.2158 0.1521 41.3758 0.328099 41.3758 0.680099C41.3758 0.776099 41.2958 0.952099 41.1358 1.2081C39.5358 3.9281 38.1598 6.7121 37.0078 9.5601C35.8878 12.4081 34.8958 15.3361 34.0318 18.3441L33.9358 18.6801C34.1278 18.6801 34.3198 18.6961 34.5118 18.7281C34.7358 18.7281 34.9278 18.7281 35.0878 18.7281C36.4638 18.8241 37.6318 18.6801 38.5918 18.2961C39.2958 18.0401 39.7758 17.6721 40.0318 17.1921C40.1278 17.0641 40.2078 17.0001 40.2718 17.0001C40.4318 17.0001 40.5438 17.0961 40.6078 17.2881C40.6718 17.4481 40.6558 17.6081 40.5598 17.7681C40.2078 18.3761 39.5838 18.8241 38.6878 19.1121C38.1758 19.3361 37.5838 19.4801 36.9118 19.5441C36.2718 19.6081 35.5998 19.6241 34.8958 19.5921H34.6078L34.0318 19.5441H33.7438C33.2638 21.3041 32.9278 23.1281 32.7358 25.0161C32.7038 25.1761 32.6878 25.3361 32.6878 25.4961C32.6878 25.6241 32.6878 25.7681 32.6878 25.9281C32.6878 27.7521 33.1838 28.6641 34.1758 28.6641C34.8158 28.6641 35.5678 28.3761 36.4318 27.8001C37.3278 27.2241 38.2238 26.5201 39.1198 25.6881C40.0478 24.8561 40.8798 24.0401 41.6158 23.2401C42.3518 22.4081 42.8958 21.7521 43.2478 21.2721C43.3118 21.2081 43.4078 21.1761 43.5358 21.1761C43.8558 21.1761 43.9518 21.3521 43.8238 21.7041C43.7598 21.8001 43.4878 22.1841 43.0078 22.8561C42.5278 23.4961 41.8718 24.2801 41.0398 25.2081C40.2078 26.1041 39.2318 27.0001 38.1118 27.8961C37.2158 28.6001 36.3198 29.0481 35.4238 29.2401C34.5598 29.4641 33.9038 29.5761 33.4558 29.5761C32.5598 29.5761 31.8398 29.1761 31.2958 28.3761C30.7838 27.5441 30.5278 26.4881 30.5278 25.2081C30.5278 24.2801 30.6238 23.3201 30.8158 22.3281C31.0078 21.3361 31.2318 20.3441 31.4878 19.3521C30.5598 19.2561 29.6158 19.1601 28.6558 19.0641C27.6958 18.9361 26.7358 18.8081 25.7758 18.6801C23.8558 21.0161 21.9358 23.2081 20.0158 25.2561C18.1278 27.2721 16.3518 28.9041 14.6878 30.1521C13.4398 31.0481 12.1438 31.7361 10.7998 32.2161C9.48783 32.7281 8.15983 32.9841 6.81583 32.9841ZM31.6798 18.4401C32.2558 16.2001 32.9278 13.9601 33.6958 11.7201C34.4958 9.4481 35.2798 7.3841 36.0478 5.5281L36.2878 4.9521C34.9118 6.8721 33.3918 8.9201 31.7278 11.0961C30.0958 13.2721 28.4318 15.4321 26.7358 17.5761C27.5678 17.7361 28.3998 17.8961 29.2318 18.0561C30.0638 18.1841 30.8798 18.3121 31.6798 18.4401Z" fill="white"/>
</svg>
