<svg width="400" height="100" viewBox="0 0 329 47" fill="none" xmlns="http://www.w3.org/2000/svg">
<path d="M305.201 46.616C304.817 46.52 304.481 46.424 304.193 46.328C303.585 46.008 303.153 45.64 302.897 45.224C302.641 44.84 302.513 44.424 302.513 43.976C302.513 43.24 302.769 42.44 303.281 41.576C303.761 40.744 304.401 39.88 305.201 38.984C306.001 38.024 307.009 37.048 308.225 36.056C309.473 35.064 310.769 34.104 312.113 33.176C313.457 32.28 314.641 31.496 315.665 30.824C316.209 29.704 316.769 28.504 317.345 27.224C317.953 25.944 318.529 24.712 319.073 23.528C319.617 22.312 320.081 21.208 320.465 20.216C320.881 19.224 321.185 18.456 321.377 17.912C320.865 18.52 320.273 19.288 319.601 20.216C318.929 21.112 318.193 22.072 317.393 23.096C316.593 24.088 315.761 25.032 314.897 25.928C314.065 26.824 313.201 27.56 312.305 28.136C311.409 28.68 310.529 28.952 309.665 28.952C308.385 28.952 307.489 28.632 306.977 27.992C306.497 27.32 306.257 26.536 306.257 25.64C306.257 25 306.337 24.36 306.497 23.72C306.689 23.08 306.929 22.488 307.217 21.944C307.409 21.56 307.713 21.048 308.129 20.408C308.545 19.768 309.025 19.112 309.569 18.44C310.113 17.768 310.657 17.208 311.201 16.76C311.777 16.312 312.321 16.088 312.833 16.088C313.441 16.088 313.905 16.312 314.225 16.76C314.545 17.176 314.577 17.464 314.321 17.624C313.809 17.976 313.169 18.52 312.401 19.256C311.665 19.96 310.929 20.776 310.193 21.704C310.001 21.96 309.761 22.36 309.473 22.904C309.217 23.448 308.977 24.04 308.753 24.68C308.529 25.288 308.417 25.848 308.417 26.36C308.417 26.584 308.449 26.808 308.513 27.032C308.577 27.224 308.689 27.368 308.849 27.464C309.105 27.656 309.393 27.752 309.713 27.752C310.161 27.752 310.657 27.608 311.201 27.32C311.777 27.032 312.321 26.664 312.833 26.216C314.625 24.488 316.225 22.68 317.633 20.792C319.041 18.904 320.529 17.032 322.097 15.176C322.193 14.856 322.465 14.696 322.913 14.696C323.425 14.696 323.953 14.856 324.497 15.176C325.073 15.464 325.313 15.704 325.217 15.896C324.929 16.536 324.545 17.384 324.065 18.44C323.617 19.496 323.121 20.632 322.577 21.848C322.033 23.064 321.489 24.28 320.945 25.496C320.401 26.68 319.905 27.752 319.457 28.712C319.841 28.52 320.529 28.04 321.521 27.272C322.513 26.504 323.601 25.576 324.785 24.488C325.969 23.368 327.041 22.216 328.001 21.032C328.193 20.84 328.337 20.744 328.433 20.744C328.625 20.744 328.721 20.872 328.721 21.128C328.721 21.352 328.625 21.608 328.433 21.896C327.953 22.536 327.281 23.288 326.417 24.152C325.585 25.016 324.673 25.896 323.681 26.792C322.721 27.656 321.777 28.44 320.849 29.144C319.921 29.88 319.121 30.44 318.449 30.824C317.457 32.936 316.497 34.92 315.569 36.776C314.641 38.664 313.793 40.184 313.025 41.336C312.513 42.136 311.889 42.952 311.153 43.784C310.417 44.616 309.617 45.304 308.753 45.848C307.889 46.424 306.977 46.712 306.017 46.712C305.889 46.712 305.761 46.696 305.633 46.664C305.505 46.664 305.361 46.648 305.201 46.616ZM305.345 45.56C305.601 45.56 305.905 45.48 306.257 45.32C306.641 45.16 307.041 44.904 307.457 44.552C308.673 43.56 309.697 42.392 310.529 41.048C311.361 39.736 312.097 38.344 312.737 36.872C313.409 35.4 314.081 33.992 314.753 32.648C313.505 33.576 312.097 34.664 310.529 35.912C308.961 37.192 307.537 38.456 306.257 39.704C305.489 40.472 304.929 41.224 304.577 41.96C304.225 42.728 304.049 43.4 304.049 43.976C304.049 45.032 304.481 45.56 305.345 45.56Z" fill="white"/>
<path d="M298.741 29.48C298.165 29.48 297.637 29.352 297.157 29.096C296.709 28.84 296.373 28.36 296.149 27.656C296.117 27.56 296.085 27.464 296.053 27.368C296.053 27.272 296.053 27.16 296.053 27.032C296.053 26.392 296.197 25.592 296.485 24.632C296.773 23.672 297.125 22.744 297.541 21.848C297.349 22.104 297.125 22.424 296.869 22.808C296.613 23.16 296.245 23.624 295.765 24.2C295.637 24.328 295.493 24.392 295.333 24.392C295.109 24.392 294.997 24.264 294.997 24.008C294.997 23.816 295.061 23.656 295.189 23.528C296.021 22.472 296.757 21.528 297.397 20.696C298.069 19.864 298.565 19.16 298.885 18.584C298.885 18.52 298.981 18.328 299.173 18.008C299.365 17.656 299.621 17.176 299.941 16.568C299.685 16.6 299.461 16.632 299.269 16.664C299.109 16.664 298.965 16.664 298.837 16.664C298.613 16.664 298.421 16.568 298.261 16.376C298.101 16.184 298.085 15.944 298.213 15.656C298.373 15.208 298.725 14.952 299.269 14.888C299.813 14.824 300.293 14.776 300.709 14.744C300.741 14.68 300.805 14.648 300.901 14.648C301.285 13.944 301.653 13.256 302.005 12.584C302.357 11.912 302.645 11.352 302.869 10.904C303.125 10.456 303.253 10.216 303.253 10.184C303.893 9.16 304.309 8.488 304.501 8.168C304.693 7.816 304.949 7.608 305.269 7.544C305.621 7.512 305.989 7.528 306.373 7.592C306.789 7.656 307.061 7.8 307.189 8.024C307.285 8.152 307.333 8.312 307.333 8.504C307.333 8.792 307.269 9.08 307.141 9.368C307.013 9.624 306.885 9.832 306.757 9.992C306.629 10.216 306.453 10.376 306.229 10.472C306.037 10.536 305.861 10.728 305.701 11.048C305.381 11.656 305.029 12.312 304.645 13.016C304.261 13.72 303.861 14.392 303.445 15.032L304.021 14.984C304.789 14.92 305.509 14.84 306.181 14.744C306.885 14.648 307.685 14.616 308.581 14.648C308.741 14.648 308.901 14.68 309.061 14.744C309.253 14.776 309.349 14.84 309.349 14.936C309.349 15.064 308.933 15.24 308.101 15.464C307.781 15.592 307.077 15.736 305.989 15.896C304.933 16.024 303.845 16.152 302.725 16.28C302.405 16.888 302.117 17.4 301.861 17.816C301.605 18.2 301.429 18.488 301.333 18.68C300.629 20.152 299.989 21.496 299.413 22.712C298.869 23.896 298.565 24.872 298.501 25.64C298.469 25.768 298.453 25.896 298.453 26.024C298.453 26.12 298.453 26.232 298.453 26.36C298.453 27.64 298.869 28.28 299.701 28.28C300.213 28.28 300.869 28.008 301.669 27.464C302.469 26.888 303.285 26.2 304.117 25.4C304.949 24.568 305.701 23.784 306.373 23.048C307.077 22.28 307.557 21.704 307.813 21.32C307.909 21.224 308.005 21.176 308.101 21.176C308.229 21.176 308.325 21.224 308.389 21.32C308.485 21.416 308.501 21.544 308.437 21.704C308.149 22.248 307.653 22.936 306.949 23.768C306.277 24.568 305.509 25.384 304.645 26.216C303.813 27.016 302.997 27.704 302.197 28.28C301.781 28.6 301.253 28.872 300.613 29.096C300.005 29.352 299.381 29.48 298.741 29.48Z" fill="white"/>
<path d="M287.877 29.48C287.301 29.48 286.789 29.352 286.341 29.096C285.893 28.84 285.557 28.36 285.333 27.656C285.301 27.496 285.253 27.32 285.189 27.128C285.157 26.904 285.141 26.68 285.141 26.456C285.141 25.688 285.237 24.824 285.429 23.864C285.653 22.904 285.893 22.104 286.149 21.464C286.021 21.56 285.797 21.88 285.477 22.424C285.157 22.968 284.757 23.608 284.277 24.344C283.797 25.048 283.253 25.768 282.645 26.504C282.069 27.208 281.429 27.8 280.725 28.28C280.053 28.728 279.333 28.952 278.565 28.952C278.053 28.952 277.429 28.808 276.693 28.52C275.989 28.232 275.477 27.832 275.157 27.32C274.837 26.808 274.677 26.168 274.677 25.4C274.677 24.472 274.885 23.464 275.301 22.376C275.717 21.256 276.245 20.216 276.885 19.256C277.109 18.936 277.365 18.552 277.653 18.104C277.941 17.656 278.229 17.272 278.517 16.952C278.805 16.6 279.013 16.408 279.141 16.376C279.525 16.248 279.973 16.184 280.485 16.184C281.029 16.184 281.429 16.248 281.685 16.376C281.909 16.472 282.021 16.584 282.021 16.712C282.021 16.872 281.893 17.08 281.637 17.336C281.285 17.656 280.805 18.136 280.197 18.776C279.589 19.416 278.981 20.184 278.373 21.08C277.797 21.976 277.317 22.968 276.933 24.056C276.613 24.92 276.453 25.672 276.453 26.312C276.453 27.432 276.901 27.992 277.797 27.992C278.565 27.992 279.381 27.672 280.245 27.032C281.109 26.392 281.941 25.608 282.741 24.68C283.573 23.752 284.309 22.84 284.949 21.944C285.621 21.016 286.133 20.28 286.485 19.736C286.805 19.288 287.157 18.712 287.541 18.008C287.957 17.304 288.357 16.616 288.741 15.944C289.125 15.272 289.429 14.776 289.653 14.456C289.877 14.456 290.213 14.504 290.661 14.6C291.141 14.664 291.541 14.792 291.861 14.984C292.213 15.176 292.309 15.416 292.149 15.704C291.957 16.024 291.653 16.52 291.237 17.192C290.853 17.864 290.453 18.552 290.037 19.256C289.653 19.928 289.349 20.472 289.125 20.888C288.357 22.36 287.861 23.944 287.637 25.64C287.605 25.768 287.589 25.896 287.589 26.024C287.589 26.12 287.589 26.232 287.589 26.36C287.589 27.64 288.021 28.28 288.885 28.28C289.365 28.28 290.005 27.992 290.805 27.416C291.605 26.84 292.421 26.152 293.253 25.352C294.117 24.552 294.885 23.784 295.557 23.048C296.261 22.28 296.741 21.704 296.997 21.32C297.061 21.224 297.157 21.176 297.285 21.176C297.413 21.176 297.509 21.224 297.573 21.32C297.669 21.416 297.669 21.544 297.573 21.704C297.285 22.248 296.789 22.936 296.085 23.768C295.413 24.568 294.661 25.384 293.829 26.216C292.997 27.016 292.181 27.704 291.381 28.28C290.965 28.6 290.437 28.872 289.797 29.096C289.157 29.352 288.517 29.48 287.877 29.48Z" fill="white"/>
<path d="M266.703 29.48C266.159 29.48 265.647 29.352 265.167 29.096C264.719 28.84 264.383 28.36 264.159 27.656C264.063 27.368 264.015 26.968 264.015 26.456C264.015 25.752 264.111 24.968 264.303 24.104C264.495 23.24 264.703 22.504 264.927 21.896C264.767 21.96 264.463 22.248 264.015 22.76C263.599 23.24 263.071 23.832 262.431 24.536C261.823 25.208 261.135 25.896 260.367 26.6C259.631 27.272 258.863 27.832 258.063 28.28C257.263 28.728 256.479 28.952 255.711 28.952C255.199 28.952 254.655 28.808 254.079 28.52C253.503 28.2 253.039 27.8 252.687 27.32C252.207 26.68 251.967 26.024 251.967 25.352C251.967 24.488 252.255 23.592 252.831 22.664C253.439 21.736 254.207 20.84 255.135 19.976C256.095 19.08 257.103 18.28 258.159 17.576C259.247 16.84 260.271 16.232 261.231 15.752C262.223 15.24 263.023 14.904 263.631 14.744C264.271 14.552 264.991 14.456 265.791 14.456C266.239 14.456 266.703 14.52 267.183 14.648C267.663 14.744 268.063 14.92 268.383 15.176C268.639 15.304 268.847 15.48 269.007 15.704C269.167 15.928 269.247 16.168 269.247 16.424C269.247 16.68 269.135 16.76 268.911 16.664C268.655 16.28 268.303 16.04 267.855 15.944C267.439 15.816 267.007 15.752 266.559 15.752C265.279 15.752 263.871 16.168 262.335 17C260.799 17.832 259.423 18.808 258.207 19.928C257.823 20.248 257.295 20.808 256.623 21.608C255.983 22.376 255.391 23.224 254.847 24.152C254.303 25.08 254.031 25.928 254.031 26.696C254.031 27.112 254.143 27.48 254.367 27.8C254.495 28.024 254.703 28.136 254.991 28.136C255.439 28.136 256.031 27.896 256.767 27.416C257.535 26.936 258.319 26.36 259.119 25.688C259.919 24.984 260.639 24.312 261.279 23.672C261.951 23.032 262.431 22.568 262.719 22.28C262.879 22.12 263.183 21.8 263.631 21.32C264.111 20.808 264.623 20.264 265.167 19.688C265.711 19.112 266.191 18.616 266.607 18.2C267.055 17.784 267.343 17.576 267.471 17.576C267.631 17.576 267.887 17.624 268.239 17.72C268.623 17.784 268.943 17.896 269.199 18.056C269.455 18.216 269.503 18.424 269.343 18.68C268.511 19.896 267.839 21.176 267.327 22.52C266.847 23.832 266.559 24.872 266.463 25.64C266.431 25.768 266.415 25.896 266.415 26.024C266.415 26.12 266.415 26.232 266.415 26.36C266.415 27.64 266.863 28.28 267.759 28.28C268.239 28.28 268.879 27.992 269.679 27.416C270.479 26.84 271.295 26.152 272.127 25.352C272.959 24.552 273.711 23.784 274.383 23.048C275.087 22.28 275.567 21.704 275.823 21.32C275.919 21.224 276.015 21.176 276.111 21.176C276.239 21.176 276.351 21.24 276.447 21.368C276.543 21.464 276.543 21.592 276.447 21.752C276.095 22.328 275.583 23.016 274.911 23.816C274.239 24.616 273.487 25.416 272.655 26.216C271.823 27.016 271.007 27.704 270.207 28.28C269.791 28.6 269.263 28.872 268.623 29.096C267.983 29.352 267.343 29.48 266.703 29.48Z" fill="white"/>
<path d="M242.351 29.72C240.911 29.72 239.663 29.384 238.607 28.712C237.551 28.04 237.023 27.016 237.023 25.64C237.023 24.904 237.247 24.008 237.695 22.952C238.015 22.216 238.607 21.368 239.471 20.408C240.335 19.448 241.343 18.52 242.495 17.624C243.647 16.696 244.815 15.944 245.999 15.368C247.183 14.76 248.255 14.456 249.215 14.456C249.567 14.456 249.887 14.504 250.175 14.6C250.719 14.792 251.087 15.096 251.279 15.512C251.503 15.928 251.615 16.36 251.615 16.808C251.615 17.224 251.551 17.624 251.423 18.008C251.295 18.392 251.135 18.728 250.943 19.016C250.367 19.88 249.535 20.648 248.447 21.32C247.391 21.992 246.303 22.52 245.183 22.904C244.095 23.288 243.199 23.512 242.495 23.576H242.399C241.983 23.576 241.775 23.448 241.775 23.192C241.775 23.032 241.903 22.952 242.159 22.952C242.927 22.888 243.887 22.536 245.039 21.896C246.223 21.224 247.263 20.536 248.159 19.832C248.543 19.512 248.991 19.064 249.503 18.488C250.047 17.912 250.319 17.352 250.319 16.808C250.319 16.232 250.047 15.944 249.503 15.944C249.215 15.944 248.911 16.008 248.591 16.136C248.303 16.264 248.063 16.36 247.871 16.424C246.943 16.872 245.919 17.576 244.799 18.536C243.679 19.464 242.655 20.52 241.727 21.704C240.831 22.856 240.207 24.024 239.855 25.208C239.759 25.464 239.695 25.72 239.663 25.976C239.631 26.2 239.615 26.424 239.615 26.648C239.615 27.416 239.855 27.96 240.335 28.28C240.847 28.6 241.455 28.76 242.159 28.76C243.215 28.76 244.303 28.536 245.423 28.088C246.543 27.608 247.631 27 248.687 26.264C249.743 25.528 250.703 24.744 251.567 23.912C252.463 23.048 253.215 22.216 253.823 21.416C253.919 21.288 254.031 21.224 254.159 21.224C254.287 21.192 254.367 21.208 254.399 21.272C254.527 21.304 254.591 21.4 254.591 21.56C254.591 21.688 254.559 21.816 254.495 21.944C253.599 23.192 252.511 24.408 251.231 25.592C249.983 26.776 248.591 27.768 247.055 28.568C245.551 29.336 243.983 29.72 242.351 29.72Z" fill="white"/>
<path d="M222.607 31.928C220.783 31.928 219.263 31.576 218.047 30.872C216.831 30.168 216.111 29.08 215.887 27.608V27.32C215.631 27.672 215.327 28.088 214.975 28.568C214.655 29.048 214.303 29.448 213.919 29.768C213.567 30.12 213.199 30.296 212.815 30.296C212.751 30.296 212.559 30.264 212.239 30.2C211.951 30.136 211.663 30.056 211.375 29.96C211.119 29.864 210.975 29.752 210.943 29.624C210.847 29.016 210.991 28.152 211.375 27.032C211.791 25.88 212.319 24.616 212.959 23.24C213.631 21.864 214.319 20.488 215.023 19.112C215.759 17.736 216.431 16.504 217.039 15.416C217.647 14.296 218.079 13.448 218.335 12.872C218.527 12.52 218.655 12.232 218.719 12.008C218.783 11.752 218.815 11.56 218.815 11.432C218.815 11.24 218.783 11.08 218.719 10.952C218.783 10.568 219.007 10.056 219.391 9.41601C219.807 8.77601 220.319 8.13601 220.927 7.49601C221.535 6.85601 222.191 6.32801 222.895 5.912C223.599 5.464 224.255 5.24001 224.863 5.24001C225.055 5.24001 225.343 5.30401 225.727 5.43201C226.143 5.52801 226.527 5.688 226.879 5.912C227.263 6.136 227.503 6.45601 227.599 6.87201C227.631 6.96801 227.647 7.06401 227.647 7.16001C227.647 7.25601 227.615 7.30401 227.551 7.30401C227.487 7.30401 227.391 7.28801 227.263 7.25601C227.167 7.19201 227.087 7.16001 227.023 7.16001C226.287 7.16001 225.487 7.51201 224.623 8.21601C223.759 8.92001 222.863 9.86401 221.935 11.048C221.039 12.232 220.159 13.528 219.295 14.936C218.431 16.344 217.599 17.768 216.799 19.208C216.031 20.616 215.359 21.928 214.783 23.144C214.207 24.328 213.759 25.288 213.439 26.024C213.183 26.728 213.055 27.224 213.055 27.512C213.055 27.96 213.231 28.184 213.583 28.184C214.031 28.184 214.511 27.88 215.023 27.272C215.375 26.856 215.695 26.472 215.983 26.12C216.303 25.736 216.575 25.576 216.799 25.64C217.247 25.64 217.551 25.768 217.711 26.024C217.871 26.248 217.967 26.52 217.999 26.84C218.031 27.16 218.063 27.448 218.095 27.704C218.319 28.696 218.831 29.512 219.631 30.152C220.463 30.824 221.615 31.16 223.087 31.16C224.655 31.16 226.063 30.904 227.311 30.392C228.559 29.88 229.551 29.176 230.287 28.28C231.023 27.352 231.391 26.312 231.391 25.16C231.391 24.36 231.199 23.528 230.815 22.664C230.431 21.768 229.823 20.872 228.991 19.976C228.287 19.144 227.503 18.36 226.639 17.624C225.775 16.888 225.023 16.216 224.383 15.608C223.775 14.968 223.471 14.424 223.471 13.976C223.471 13.592 223.727 13.256 224.239 12.968C224.751 12.648 225.167 12.488 225.487 12.488C226.223 12.488 227.151 12.344 228.271 12.056C229.423 11.768 230.607 11.384 231.823 10.904C233.039 10.392 234.143 9.83201 235.135 9.224C236.159 8.616 236.911 8.00801 237.391 7.40001C237.679 7.04801 237.903 6.68001 238.063 6.29601C238.255 5.88001 238.351 5.48001 238.351 5.09601C238.351 4.48801 238.079 3.94401 237.535 3.46401C237.023 2.95201 236.143 2.58401 234.895 2.36001C234.543 2.26401 234.127 2.20001 233.647 2.16801C233.167 2.13601 232.655 2.12001 232.111 2.12001C230.479 2.12001 228.591 2.28001 226.447 2.60001C224.303 2.88801 222.127 3.32001 219.919 3.89601C217.711 4.47201 215.647 5.19201 213.727 6.05601C211.807 6.92001 210.223 7.92801 208.975 9.08001C207.759 10.2 207.071 11.448 206.911 12.824C206.847 13.624 207.039 14.232 207.487 14.648C207.935 15.064 208.463 15.384 209.071 15.608C209.679 15.8 210.159 15.992 210.511 16.184C210.799 16.312 210.943 16.44 210.943 16.568C210.943 16.728 210.767 16.808 210.415 16.808C210.031 16.808 209.551 16.712 208.975 16.52C208.399 16.328 207.823 16.04 207.247 15.656C206.703 15.24 206.255 14.744 205.903 14.168C205.551 13.592 205.423 12.92 205.519 12.152C205.519 12.088 205.503 11.976 205.471 11.816C205.439 11.624 205.423 11.48 205.423 11.384C205.519 10.36 205.951 9.38401 206.719 8.45601C207.519 7.52801 208.447 6.68001 209.503 5.912C210.591 5.14401 211.599 4.50401 212.527 3.99201C213.551 3.448 214.783 2.952 216.223 2.504C217.663 2.024 219.199 1.60801 220.831 1.25601C222.495 0.904005 224.175 0.632005 225.871 0.440005C227.567 0.216004 229.151 0.104004 230.623 0.104004C232.191 0.104004 233.567 0.232004 234.751 0.488005C236.351 0.840006 237.583 1.46401 238.447 2.36001C239.311 3.25601 239.743 4.24801 239.743 5.33601C239.711 6.52001 239.343 7.56001 238.639 8.45601C237.967 9.32001 237.087 10.056 235.999 10.664C234.911 11.272 233.727 11.784 232.447 12.2C231.199 12.584 229.967 12.872 228.751 13.064C227.535 13.256 226.479 13.368 225.583 13.4C226.927 14.2 228.255 15.096 229.567 16.088C230.911 17.048 232.015 18.104 232.879 19.256C233.775 20.408 234.223 21.672 234.223 23.048C234.223 23.816 234.047 24.616 233.695 25.448C233.375 26.248 232.847 27.112 232.111 28.04C231.151 29.224 229.807 30.168 228.079 30.872C226.383 31.576 224.559 31.928 222.607 31.928Z" fill="white"/>
<path d="M187.765 29.48C187.221 29.48 186.709 29.352 186.229 29.096C185.781 28.84 185.445 28.36 185.221 27.656C185.125 27.368 185.077 26.968 185.077 26.456C185.077 25.752 185.173 24.968 185.365 24.104C185.557 23.24 185.765 22.504 185.989 21.896C185.829 21.96 185.525 22.248 185.077 22.76C184.661 23.24 184.133 23.832 183.493 24.536C182.885 25.208 182.197 25.896 181.429 26.6C180.693 27.272 179.925 27.832 179.125 28.28C178.325 28.728 177.541 28.952 176.773 28.952C176.261 28.952 175.717 28.808 175.141 28.52C174.565 28.2 174.101 27.8 173.749 27.32C173.269 26.68 173.029 26.024 173.029 25.352C173.029 24.488 173.317 23.592 173.893 22.664C174.501 21.736 175.269 20.84 176.197 19.976C177.157 19.08 178.165 18.28 179.221 17.576C180.309 16.84 181.333 16.232 182.293 15.752C183.285 15.24 184.085 14.904 184.693 14.744C185.333 14.552 186.053 14.456 186.853 14.456C187.301 14.456 187.765 14.52 188.245 14.648C188.725 14.744 189.125 14.92 189.445 15.176C189.701 15.304 189.909 15.48 190.069 15.704C190.229 15.928 190.309 16.168 190.309 16.424C190.309 16.68 190.197 16.76 189.973 16.664C189.717 16.28 189.365 16.04 188.917 15.944C188.501 15.816 188.069 15.752 187.621 15.752C186.341 15.752 184.933 16.168 183.397 17C181.861 17.832 180.485 18.808 179.269 19.928C178.885 20.248 178.357 20.808 177.685 21.608C177.045 22.376 176.453 23.224 175.909 24.152C175.365 25.08 175.093 25.928 175.093 26.696C175.093 27.112 175.205 27.48 175.429 27.8C175.557 28.024 175.765 28.136 176.053 28.136C176.501 28.136 177.093 27.896 177.829 27.416C178.597 26.936 179.381 26.36 180.181 25.688C180.981 24.984 181.701 24.312 182.341 23.672C183.013 23.032 183.493 22.568 183.781 22.28C183.941 22.12 184.245 21.8 184.693 21.32C185.173 20.808 185.685 20.264 186.229 19.688C186.773 19.112 187.253 18.616 187.669 18.2C188.117 17.784 188.405 17.576 188.533 17.576C188.693 17.576 188.949 17.624 189.301 17.72C189.685 17.784 190.005 17.896 190.261 18.056C190.517 18.216 190.565 18.424 190.405 18.68C189.573 19.896 188.901 21.176 188.389 22.52C187.909 23.832 187.621 24.872 187.525 25.64C187.493 25.768 187.477 25.896 187.477 26.024C187.477 26.12 187.477 26.232 187.477 26.36C187.477 27.64 187.925 28.28 188.821 28.28C189.301 28.28 189.941 27.992 190.741 27.416C191.541 26.84 192.357 26.152 193.189 25.352C194.021 24.552 194.773 23.784 195.445 23.048C196.149 22.28 196.629 21.704 196.885 21.32C196.981 21.224 197.077 21.176 197.173 21.176C197.301 21.176 197.413 21.24 197.509 21.368C197.605 21.464 197.605 21.592 197.509 21.752C197.157 22.328 196.645 23.016 195.973 23.816C195.301 24.616 194.549 25.416 193.717 26.216C192.885 27.016 192.069 27.704 191.269 28.28C190.853 28.6 190.325 28.872 189.685 29.096C189.045 29.352 188.405 29.48 187.765 29.48Z" fill="white"/>
<path d="M166.195 29.48C164.851 29.48 163.907 29.144 163.363 28.472C162.851 27.8 162.595 26.968 162.595 25.976C162.595 25.048 162.803 23.88 163.219 22.472C163.667 21.064 164.243 19.544 164.947 17.912C165.651 16.28 166.403 14.664 167.203 13.064C168.035 11.432 168.851 9.944 169.651 8.6C170.483 7.224 171.203 6.12 171.811 5.288C172.419 4.488 173.075 3.688 173.779 2.888C174.483 2.088 175.267 1.416 176.131 0.872001C176.995 0.328 177.971 0.0559998 179.059 0.0559998C179.795 0.0559998 180.419 0.264 180.931 0.68C181.475 1.064 181.747 1.656 181.747 2.456C181.747 2.776 181.683 3.144 181.555 3.56C181.459 3.976 181.283 4.408 181.027 4.856C179.075 8.248 176.739 11.384 174.019 14.264C171.331 17.144 168.483 19.816 165.475 22.28C165.347 22.76 165.219 23.192 165.091 23.576C164.995 23.96 164.915 24.264 164.851 24.488C164.819 24.648 164.803 24.824 164.803 25.016C164.803 25.176 164.803 25.336 164.803 25.496C164.803 26.264 164.931 26.936 165.187 27.512C165.443 28.088 165.875 28.376 166.483 28.376C167.059 28.376 167.763 28.104 168.595 27.56C169.459 26.984 170.323 26.296 171.187 25.496C172.051 24.664 172.835 23.864 173.539 23.096C174.243 22.328 174.739 21.736 175.027 21.32C175.123 21.224 175.219 21.176 175.315 21.176C175.443 21.176 175.539 21.24 175.603 21.368C175.699 21.496 175.699 21.656 175.603 21.848C175.283 22.392 174.771 23.064 174.067 23.864C173.363 24.664 172.579 25.48 171.715 26.312C170.851 27.112 170.019 27.816 169.219 28.424C168.227 29.128 167.219 29.48 166.195 29.48ZM166.147 20.36C167.363 19.528 168.627 18.456 169.939 17.144C171.251 15.8 172.531 14.344 173.779 12.776C175.059 11.208 176.211 9.656 177.235 8.12C178.291 6.584 179.139 5.192 179.779 3.944C179.971 3.592 180.099 3.288 180.163 3.032C180.259 2.744 180.307 2.488 180.307 2.264C180.307 1.656 180.051 1.352 179.539 1.352C179.091 1.352 178.531 1.592 177.859 2.072C176.131 3.416 174.531 5.144 173.059 7.256C171.587 9.336 170.275 11.528 169.123 13.832C167.971 16.136 166.979 18.312 166.147 20.36Z" fill="white"/>
<path d="M154.611 29.48C154.035 29.48 153.523 29.352 153.075 29.096C152.627 28.84 152.291 28.36 152.067 27.656C152.035 27.496 151.987 27.32 151.923 27.128C151.891 26.904 151.875 26.68 151.875 26.456C151.875 25.688 151.971 24.824 152.163 23.864C152.387 22.904 152.627 22.104 152.883 21.464C152.755 21.56 152.531 21.88 152.211 22.424C151.891 22.968 151.491 23.608 151.011 24.344C150.531 25.048 149.987 25.768 149.379 26.504C148.803 27.208 148.163 27.8 147.459 28.28C146.787 28.728 146.067 28.952 145.299 28.952C144.787 28.952 144.163 28.808 143.427 28.52C142.723 28.232 142.211 27.832 141.891 27.32C141.571 26.808 141.411 26.168 141.411 25.4C141.411 24.472 141.619 23.464 142.035 22.376C142.451 21.256 142.979 20.216 143.619 19.256C143.843 18.936 144.099 18.552 144.387 18.104C144.675 17.656 144.963 17.272 145.251 16.952C145.539 16.6 145.747 16.408 145.875 16.376C146.259 16.248 146.707 16.184 147.219 16.184C147.763 16.184 148.163 16.248 148.419 16.376C148.643 16.472 148.755 16.584 148.755 16.712C148.755 16.872 148.627 17.08 148.371 17.336C148.019 17.656 147.539 18.136 146.931 18.776C146.323 19.416 145.715 20.184 145.107 21.08C144.531 21.976 144.051 22.968 143.667 24.056C143.347 24.92 143.187 25.672 143.187 26.312C143.187 27.432 143.635 27.992 144.531 27.992C145.299 27.992 146.115 27.672 146.979 27.032C147.843 26.392 148.675 25.608 149.475 24.68C150.307 23.752 151.043 22.84 151.683 21.944C152.355 21.016 152.867 20.28 153.219 19.736C153.539 19.288 153.891 18.712 154.275 18.008C154.691 17.304 155.091 16.616 155.475 15.944C155.859 15.272 156.163 14.776 156.387 14.456C156.611 14.456 156.947 14.504 157.395 14.6C157.875 14.664 158.275 14.792 158.595 14.984C158.947 15.176 159.043 15.416 158.883 15.704C158.691 16.024 158.387 16.52 157.971 17.192C157.587 17.864 157.187 18.552 156.771 19.256C156.387 19.928 156.083 20.472 155.859 20.888C155.091 22.36 154.595 23.944 154.371 25.64C154.339 25.768 154.323 25.896 154.323 26.024C154.323 26.12 154.323 26.232 154.323 26.36C154.323 27.64 154.755 28.28 155.619 28.28C156.099 28.28 156.739 27.992 157.539 27.416C158.339 26.84 159.155 26.152 159.987 25.352C160.851 24.552 161.619 23.784 162.291 23.048C162.995 22.28 163.475 21.704 163.731 21.32C163.795 21.224 163.891 21.176 164.019 21.176C164.147 21.176 164.243 21.224 164.307 21.32C164.403 21.416 164.403 21.544 164.307 21.704C164.019 22.248 163.523 22.936 162.819 23.768C162.147 24.568 161.395 25.384 160.563 26.216C159.731 27.016 158.915 27.704 158.115 28.28C157.699 28.6 157.171 28.872 156.531 29.096C155.891 29.352 155.251 29.48 154.611 29.48Z" fill="white"/>
<path d="M133.437 29.48C132.893 29.48 132.381 29.352 131.901 29.096C131.453 28.84 131.117 28.36 130.893 27.656C130.797 27.368 130.749 26.968 130.749 26.456C130.749 25.752 130.845 24.968 131.037 24.104C131.229 23.24 131.437 22.504 131.661 21.896C131.501 21.96 131.197 22.248 130.749 22.76C130.333 23.24 129.805 23.832 129.165 24.536C128.557 25.208 127.869 25.896 127.101 26.6C126.365 27.272 125.597 27.832 124.797 28.28C123.997 28.728 123.213 28.952 122.445 28.952C121.933 28.952 121.389 28.808 120.813 28.52C120.237 28.2 119.773 27.8 119.421 27.32C118.941 26.68 118.701 26.024 118.701 25.352C118.701 24.488 118.989 23.592 119.565 22.664C120.173 21.736 120.941 20.84 121.869 19.976C122.829 19.08 123.837 18.28 124.893 17.576C125.981 16.84 127.005 16.232 127.965 15.752C128.957 15.24 129.757 14.904 130.365 14.744C131.005 14.552 131.725 14.456 132.525 14.456C132.973 14.456 133.437 14.52 133.917 14.648C134.397 14.744 134.797 14.92 135.117 15.176C135.373 15.304 135.581 15.48 135.741 15.704C135.901 15.928 135.981 16.168 135.981 16.424C135.981 16.68 135.869 16.76 135.645 16.664C135.389 16.28 135.037 16.04 134.589 15.944C134.173 15.816 133.741 15.752 133.293 15.752C132.013 15.752 130.605 16.168 129.069 17C127.533 17.832 126.157 18.808 124.941 19.928C124.557 20.248 124.029 20.808 123.357 21.608C122.717 22.376 122.125 23.224 121.581 24.152C121.037 25.08 120.765 25.928 120.765 26.696C120.765 27.112 120.877 27.48 121.101 27.8C121.229 28.024 121.437 28.136 121.725 28.136C122.173 28.136 122.765 27.896 123.501 27.416C124.269 26.936 125.053 26.36 125.853 25.688C126.653 24.984 127.373 24.312 128.013 23.672C128.685 23.032 129.165 22.568 129.453 22.28C129.613 22.12 129.917 21.8 130.365 21.32C130.845 20.808 131.357 20.264 131.901 19.688C132.445 19.112 132.925 18.616 133.341 18.2C133.789 17.784 134.077 17.576 134.205 17.576C134.365 17.576 134.621 17.624 134.973 17.72C135.357 17.784 135.677 17.896 135.933 18.056C136.189 18.216 136.237 18.424 136.077 18.68C135.245 19.896 134.573 21.176 134.061 22.52C133.581 23.832 133.293 24.872 133.197 25.64C133.165 25.768 133.149 25.896 133.149 26.024C133.149 26.12 133.149 26.232 133.149 26.36C133.149 27.64 133.597 28.28 134.493 28.28C134.973 28.28 135.613 27.992 136.413 27.416C137.213 26.84 138.029 26.152 138.861 25.352C139.693 24.552 140.445 23.784 141.117 23.048C141.821 22.28 142.301 21.704 142.557 21.32C142.653 21.224 142.749 21.176 142.845 21.176C142.973 21.176 143.085 21.24 143.181 21.368C143.277 21.464 143.277 21.592 143.181 21.752C142.829 22.328 142.317 23.016 141.645 23.816C140.973 24.616 140.221 25.416 139.389 26.216C138.557 27.016 137.741 27.704 136.941 28.28C136.525 28.6 135.997 28.872 135.357 29.096C134.717 29.352 134.077 29.48 133.437 29.48Z" fill="white"/>
<path d="M100.409 30.296C100.345 30.296 100.153 30.264 99.833 30.2C99.545 30.136 99.257 30.056 98.969 29.96C98.713 29.864 98.569 29.752 98.537 29.624C98.473 29.016 98.633 28.152 99.017 27.032C99.401 25.912 99.913 24.664 100.553 23.288C101.225 21.88 101.913 20.504 102.617 19.16C102.489 19.16 102.345 19.16 102.185 19.16C102.057 19.128 101.913 19.112 101.753 19.112C101.369 19.048 101.177 18.872 101.177 18.584C101.177 18.424 101.353 18.344 101.705 18.344C101.961 18.344 102.185 18.36 102.377 18.392C102.569 18.392 102.777 18.392 103.001 18.392C103.641 17.176 104.233 16.088 104.777 15.128C105.321 14.136 105.705 13.384 105.929 12.872C106.121 12.52 106.249 12.232 106.313 12.008C106.377 11.752 106.409 11.56 106.409 11.432C106.409 11.24 106.377 11.08 106.313 10.952C106.377 10.568 106.601 10.056 106.985 9.416C107.401 8.776 107.913 8.136 108.521 7.496C109.129 6.856 109.785 6.328 110.489 5.912C111.193 5.464 111.849 5.24 112.457 5.24C112.649 5.24 112.937 5.304 113.321 5.432C113.737 5.528 114.137 5.688 114.521 5.912C114.905 6.136 115.145 6.456 115.241 6.872C115.273 6.936 115.289 7.032 115.289 7.16C115.289 7.256 115.241 7.304 115.145 7.304C115.081 7.304 114.985 7.288 114.857 7.256C114.761 7.192 114.681 7.16 114.617 7.16C113.913 7.16 113.145 7.496 112.313 8.168C111.513 8.808 110.681 9.672 109.817 10.76C108.953 11.848 108.089 13.064 107.225 14.408C106.393 15.72 105.593 17.048 104.825 18.392C106.425 18.328 108.121 18.136 109.913 17.816C111.705 17.464 113.481 17 115.241 16.424C117.001 15.848 118.633 15.144 120.137 14.312C121.641 13.48 122.905 12.536 123.929 11.48C125.049 10.296 125.609 9.08 125.609 7.832C125.609 6.904 125.257 6.04 124.553 5.24C123.849 4.44 122.745 3.832 121.241 3.416C120.345 3.16 119.321 2.968 118.169 2.84C117.049 2.712 115.833 2.648 114.521 2.648C112.473 2.648 110.361 2.824 108.185 3.176C106.041 3.528 104.025 4.072 102.137 4.808C100.249 5.512 98.665 6.408 97.385 7.496C96.105 8.584 95.337 9.88 95.081 11.384C94.985 12.152 95.129 12.76 95.513 13.208C95.897 13.656 96.361 14.008 96.905 14.264C97.481 14.488 97.929 14.696 98.249 14.888C98.473 15.08 98.585 15.24 98.585 15.368C98.585 15.592 98.377 15.672 97.961 15.608C97.513 15.512 96.953 15.288 96.281 14.936C95.641 14.584 95.065 14.104 94.553 13.496C94.073 12.856 93.833 12.12 93.833 11.288C93.833 11.16 93.833 11.032 93.833 10.904C93.865 10.776 93.897 10.648 93.929 10.52C93.929 10.488 93.913 10.392 93.881 10.232C93.881 10.04 93.881 9.88 93.881 9.752C94.073 8.76 94.553 7.832 95.321 6.968C96.121 6.072 97.017 5.288 98.009 4.616C99.033 3.912 99.977 3.352 100.841 2.936C102.345 2.2 104.153 1.624 106.265 1.208C108.377 0.759995 110.585 0.535995 112.889 0.535995C114.297 0.535995 115.689 0.631996 117.065 0.823997C118.473 1.016 119.833 1.32 121.145 1.736C122.969 2.344 124.377 3.288 125.369 4.568C126.393 5.816 126.857 7.128 126.761 8.504C126.665 9.816 126.201 11 125.369 12.056C124.569 13.112 123.529 14.04 122.249 14.84C121.001 15.608 119.609 16.28 118.073 16.856C116.569 17.4 115.049 17.848 113.513 18.2C112.041 18.52 110.473 18.76 108.809 18.92C107.177 19.08 105.705 19.176 104.393 19.208C103.625 20.584 102.937 21.88 102.329 23.096C101.753 24.312 101.321 25.288 101.033 26.024C100.777 26.728 100.649 27.224 100.649 27.512C100.649 27.96 100.825 28.184 101.177 28.184C101.625 28.184 102.105 27.88 102.617 27.272C102.969 26.856 103.289 26.472 103.577 26.12C103.897 25.736 104.169 25.576 104.393 25.64C104.425 25.672 104.441 25.72 104.441 25.784C104.441 25.944 104.329 26.168 104.105 26.456C103.881 26.712 103.753 26.856 103.721 26.888C103.497 27.208 103.193 27.64 102.809 28.184C102.457 28.728 102.073 29.208 101.657 29.624C101.273 30.072 100.857 30.296 100.409 30.296Z" fill="white"/>
<path d="M75.359 29.48C74.815 29.48 74.303 29.352 73.823 29.096C73.375 28.84 73.039 28.36 72.815 27.656C72.719 27.368 72.671 26.968 72.671 26.456C72.671 25.752 72.767 24.968 72.959 24.104C73.151 23.24 73.359 22.504 73.583 21.896C73.423 21.96 73.119 22.248 72.671 22.76C72.255 23.24 71.727 23.832 71.087 24.536C70.479 25.208 69.791 25.896 69.023 26.6C68.287 27.272 67.519 27.832 66.719 28.28C65.919 28.728 65.135 28.952 64.367 28.952C63.855 28.952 63.311 28.808 62.735 28.52C62.159 28.2 61.695 27.8 61.343 27.32C60.863 26.68 60.623 26.024 60.623 25.352C60.623 24.488 60.911 23.592 61.487 22.664C62.095 21.736 62.863 20.84 63.791 19.976C64.751 19.08 65.759 18.28 66.815 17.576C67.903 16.84 68.9271 16.232 69.8871 15.752C70.8791 15.24 71.679 14.904 72.287 14.744C72.927 14.552 73.647 14.456 74.447 14.456C74.895 14.456 75.359 14.52 75.839 14.648C76.319 14.744 76.719 14.92 77.039 15.176C77.295 15.304 77.503 15.48 77.663 15.704C77.823 15.928 77.903 16.168 77.903 16.424C77.903 16.68 77.7911 16.76 77.5671 16.664C77.3111 16.28 76.9591 16.04 76.5111 15.944C76.0951 15.816 75.663 15.752 75.215 15.752C73.935 15.752 72.527 16.168 70.991 17C69.455 17.832 68.079 18.808 66.863 19.928C66.479 20.248 65.951 20.808 65.279 21.608C64.639 22.376 64.047 23.224 63.503 24.152C62.959 25.08 62.687 25.928 62.687 26.696C62.687 27.112 62.799 27.48 63.023 27.8C63.151 28.024 63.359 28.136 63.647 28.136C64.095 28.136 64.687 27.896 65.423 27.416C66.191 26.936 66.975 26.36 67.775 25.688C68.575 24.984 69.295 24.312 69.935 23.672C70.607 23.032 71.087 22.568 71.375 22.28C71.535 22.12 71.839 21.8 72.287 21.32C72.767 20.808 73.279 20.264 73.823 19.688C74.367 19.112 74.8471 18.616 75.2631 18.2C75.7111 17.784 75.999 17.576 76.127 17.576C76.287 17.576 76.543 17.624 76.895 17.72C77.279 17.784 77.599 17.896 77.855 18.056C78.111 18.216 78.159 18.424 77.9991 18.68C77.1671 19.896 76.4951 21.176 75.9831 22.52C75.5031 23.832 75.215 24.872 75.119 25.64C75.087 25.768 75.071 25.896 75.071 26.024C75.071 26.12 75.071 26.232 75.071 26.36C75.071 27.64 75.5191 28.28 76.4151 28.28C76.8951 28.28 77.535 27.992 78.335 27.416C79.135 26.84 79.951 26.152 80.783 25.352C81.615 24.552 82.3671 23.784 83.0391 23.048C83.7431 22.28 84.223 21.704 84.479 21.32C84.575 21.224 84.671 21.176 84.767 21.176C84.895 21.176 85.007 21.24 85.103 21.368C85.199 21.464 85.199 21.592 85.103 21.752C84.751 22.328 84.2391 23.016 83.5671 23.816C82.8951 24.616 82.143 25.416 81.311 26.216C80.479 27.016 79.663 27.704 78.863 28.28C78.447 28.6 77.919 28.872 77.279 29.096C76.639 29.352 75.999 29.48 75.359 29.48Z" fill="white"/>
<path d="M40.5448 29.624C40.3208 29.624 40.2568 29.512 40.3528 29.288C40.4488 29.096 40.6248 28.664 40.8808 27.992C41.1368 27.288 41.4248 26.456 41.7448 25.496C42.0968 24.536 42.4488 23.544 42.8008 22.52C43.1528 21.496 43.4728 20.536 43.7608 19.64C44.0808 18.744 44.3368 18.04 44.5288 17.528C44.5928 17.336 44.6568 17.064 44.7208 16.712C44.7848 16.328 44.9128 15.992 45.1048 15.704C45.3288 15.384 45.6968 15.224 46.2088 15.224C47.1688 15.224 47.6488 15.448 47.6488 15.896C47.6488 16.056 47.5688 16.328 47.4088 16.712C47.0248 17.576 46.6088 18.568 46.1608 19.688C45.7128 20.808 45.3128 21.864 44.9608 22.856C44.6088 23.848 44.3368 24.616 44.1448 25.16C44.4648 24.712 44.9768 24.072 45.6808 23.24C46.4168 22.408 47.2328 21.512 48.1288 20.552C49.0248 19.592 49.9528 18.664 50.9128 17.768C51.9048 16.872 52.8168 16.152 53.6488 15.608C54.5128 15.032 55.2488 14.744 55.8568 14.744C56.6248 14.744 57.0088 15.16 57.0088 15.992C57.0088 16.28 56.9288 16.712 56.7688 17.288C56.4808 18.088 56.1128 18.872 55.6648 19.64C55.2168 20.376 54.8168 21.16 54.4648 21.992C53.8568 23.496 53.5048 24.712 53.4088 25.64C53.3768 25.768 53.3608 25.896 53.3608 26.024C53.3608 26.12 53.3608 26.232 53.3608 26.36C53.3608 27.64 53.7928 28.28 54.6568 28.28C55.1368 28.28 55.7768 27.992 56.5768 27.416C57.3768 26.84 58.1928 26.152 59.0248 25.352C59.8888 24.552 60.6568 23.784 61.3288 23.048C62.0008 22.28 62.4648 21.704 62.7208 21.32C62.8168 21.224 62.9128 21.176 63.0088 21.176C63.1368 21.176 63.2328 21.224 63.2968 21.32C63.3928 21.416 63.4088 21.544 63.3448 21.704C63.0568 22.248 62.5608 22.936 61.8568 23.768C61.1848 24.568 60.4328 25.384 59.6008 26.216C58.7688 27.016 57.9528 27.704 57.1528 28.28C56.6728 28.6 56.0808 28.888 55.3768 29.144C54.6728 29.4 53.9688 29.512 53.2648 29.48C52.3688 29.384 51.7288 29.08 51.3448 28.568C50.9608 28.024 50.7688 27.384 50.7688 26.648C50.7688 25.784 50.9288 24.872 51.2488 23.912C51.6008 22.92 51.9848 21.992 52.4008 21.128C52.8168 20.264 53.1528 19.608 53.4088 19.16C53.6648 18.648 53.7928 18.248 53.7928 17.96C53.7928 17.704 53.6808 17.576 53.4568 17.576C53.2328 17.576 52.8968 17.72 52.4488 18.008C52.0008 18.296 51.3928 18.792 50.6248 19.496C49.9208 20.104 49.1688 20.904 48.3688 21.896C47.5688 22.856 46.7848 23.848 46.0168 24.872C45.2808 25.896 44.6248 26.776 44.0488 27.512C43.5048 28.248 43.1208 28.68 42.8968 28.808C42.7368 28.904 42.3688 29.064 41.7928 29.288C41.2488 29.512 40.8328 29.624 40.5448 29.624Z" fill="white"/>
<path d="M6.81608 32.984C5.76008 32.984 4.75208 32.808 3.79208 32.456C2.83208 32.104 2.04808 31.544 1.44008 30.776C0.832076 30.008 0.528076 29.032 0.528076 27.848C0.528076 27.56 0.592076 27.304 0.720076 27.08C0.880076 26.824 1.02408 26.696 1.15208 26.696C1.40808 26.696 1.53608 27.08 1.53608 27.848C1.53608 28.936 2.00008 29.784 2.92808 30.392C3.66408 30.872 4.65608 31.112 5.90408 31.112C7.15208 31.112 8.44808 30.888 9.79208 30.44C11.1361 29.992 12.4161 29.352 13.6321 28.52C15.0721 27.56 16.6721 26.184 18.4321 24.392C20.2241 22.568 22.0801 20.584 24.0001 18.44C22.4641 18.28 20.9281 18.104 19.3921 17.912C17.8881 17.72 16.3681 17.624 14.8321 17.624C13.8081 17.624 12.7841 17.736 11.7601 17.96C10.7361 18.152 9.80808 18.536 8.97608 19.112C8.14408 19.688 7.52008 20.536 7.10408 21.656C7.07208 21.784 7.02408 21.928 6.96008 22.088C6.92808 22.248 6.91208 22.408 6.91208 22.568C6.91208 22.888 6.99208 23.176 7.15208 23.432C7.21608 23.624 7.24808 23.736 7.24808 23.768C7.24808 24.056 7.12008 24.2 6.86408 24.2C6.64008 24.2 6.46408 24.088 6.33608 23.864C6.01608 23.288 5.85608 22.552 5.85608 21.656C5.85608 19.96 6.16008 18.664 6.76808 17.768C7.40808 16.872 8.25608 16.264 9.31208 15.944C10.3681 15.624 11.5041 15.464 12.7201 15.464C13.2641 15.464 13.8241 15.496 14.4001 15.56C15.0081 15.592 15.6001 15.64 16.1761 15.704C17.5841 15.832 19.0401 16.056 20.5441 16.376C22.0481 16.664 23.5521 16.968 25.0561 17.288C26.7201 15.336 28.3521 13.368 29.9521 11.384C31.5841 9.40001 33.1041 7.52801 34.5121 5.76801C35.9201 3.97601 37.1201 2.44001 38.1121 1.16001C38.1441 1.06401 38.2081 1.00001 38.3041 0.968006C38.3681 0.904007 38.4161 0.872007 38.4481 0.872007C38.8001 0.680008 39.2481 0.520008 39.7921 0.392008C40.3361 0.232008 40.7041 0.152008 40.8961 0.152008C41.2161 0.152008 41.3761 0.328008 41.3761 0.680007C41.3761 0.776008 41.2961 0.952007 41.1361 1.20801C39.5361 3.92801 38.1601 6.71201 37.0081 9.56001C35.8881 12.408 34.8961 15.336 34.0321 18.344L33.9361 18.68C34.1281 18.68 34.3201 18.696 34.5121 18.728C34.7361 18.728 34.9281 18.728 35.0881 18.728C36.4641 18.824 37.6321 18.68 38.5921 18.296C39.2961 18.04 39.7761 17.672 40.0321 17.192C40.1281 17.064 40.2081 17 40.2721 17C40.4321 17 40.5441 17.096 40.6081 17.288C40.6721 17.448 40.6561 17.608 40.5601 17.768C40.2081 18.376 39.5841 18.824 38.6881 19.112C38.1761 19.336 37.5841 19.48 36.9121 19.544C36.2721 19.608 35.6001 19.624 34.8961 19.592H34.6081L34.0321 19.544H33.7441C33.2641 21.304 32.9281 23.128 32.7361 25.016C32.7041 25.176 32.6881 25.336 32.6881 25.496C32.6881 25.624 32.6881 25.768 32.6881 25.928C32.6881 27.752 33.1841 28.664 34.1761 28.664C34.8161 28.664 35.5681 28.376 36.4321 27.8C37.3281 27.224 38.2241 26.52 39.1201 25.688C40.0481 24.856 40.8801 24.04 41.6161 23.24C42.3521 22.408 42.8961 21.752 43.2481 21.272C43.3121 21.208 43.4081 21.176 43.5361 21.176C43.8561 21.176 43.9521 21.352 43.8241 21.704C43.7601 21.8 43.4881 22.184 43.0081 22.856C42.5281 23.496 41.8721 24.28 41.0401 25.208C40.2081 26.104 39.2321 27 38.1121 27.896C37.2161 28.6 36.3201 29.048 35.4241 29.24C34.5601 29.464 33.9041 29.576 33.4561 29.576C32.5601 29.576 31.8401 29.176 31.2961 28.376C30.7841 27.544 30.5281 26.488 30.5281 25.208C30.5281 24.28 30.6241 23.32 30.8161 22.328C31.0081 21.336 31.2321 20.344 31.4881 19.352C30.5601 19.256 29.6161 19.16 28.6561 19.064C27.6961 18.936 26.7361 18.808 25.7761 18.68C23.8561 21.016 21.9361 23.208 20.0161 25.256C18.1281 27.272 16.3521 28.904 14.6881 30.152C13.4401 31.048 12.1441 31.736 10.8001 32.216C9.48808 32.728 8.16008 32.984 6.81608 32.984ZM31.6801 18.44C32.2561 16.2 32.9281 13.96 33.6961 11.72C34.4961 9.44801 35.2801 7.38401 36.0481 5.52801L36.2881 4.95201C34.9121 6.87201 33.3921 8.92001 31.7281 11.096C30.0961 13.272 28.4321 15.432 26.7361 17.576C27.5681 17.736 28.4001 17.896 29.2321 18.056C30.0641 18.184 30.8801 18.312 31.6801 18.44Z" fill="white"/>
</svg>
